<?xml version="1.0" encoding="utf-8"?>
<!-- Generator: Adobe Illustrator 24.1.2, SVG Export Plug-In . SVG Version: 6.00 Build 0)  -->
<svg version="1.1" xmlns="http://www.w3.org/2000/svg" xmlns:xlink="http://www.w3.org/1999/xlink" x="0px" y="0px"
	 viewBox="0 0 526 52" style="enable-background:new 0 0 526 52;" xml:space="preserve">
<style type="text/css">
	.st0{fill:#FFFFFF;}
	.st1{font-family:'MyriadPro-Regular';}
	.st2{font-size:6px;}
	.st3{fill:#C1272D;}
	.st4{fill:#009245;}
	.st5{fill:#0000FF;}
	.st6{fill:#00FF00;}
</style>
<g id="Layer_3">
	<g>
		<rect x="5" y="9" class="st0" width="94" height="34"/>
		<path d="M99,9h-4.8v0.6H99V9L99,9z M89.4,9h-4.8v0.6h4.8V9L89.4,9z M79.8,9h-4.8v0.6h4.8V9L79.8,9z M70.1,9h-4.8v0.6h4.8V9L70.1,9
			z M60.5,9h-4.8v0.6h4.8V9L60.5,9z M50.9,9h-4.8v0.6h4.8V9L50.9,9z M41.3,9h-4.8v0.6h4.8V9L41.3,9z M31.6,9h-4.8v0.6h4.8V9L31.6,9z
			 M22,9h-4.8v0.6H22V9L22,9z M12.4,9H7.6v0.6h4.8V9L12.4,9z M5.6,11.2H5V16h0.6V11.2L5.6,11.2z M5.6,20.8H5v4.8h0.6V20.8L5.6,20.8z
			 M5.6,30.5H5v4.8h0.6V30.5L5.6,30.5z M5.6,40.1H5V43h0.6l0,0l0,0l0,0l0,0c0.6,0,1.3,0,1.3,0v-0.6H5.6V40.1L5.6,40.1z M16.5,42.4
			h-4.8V43h4.8V42.4L16.5,42.4z M26.2,42.4h-4.8V43h4.8V42.4L26.2,42.4z M35.8,42.4H31V43h4.8V42.4L35.8,42.4z M45.4,42.4h-4.8V43
			h4.8V42.4L45.4,42.4z M55,42.4h-4.8V43H55V42.4L55,42.4z M64.6,42.4h-4.8V43h4.8V42.4L64.6,42.4z M74.3,42.4h-4.8V43h4.8V42.4
			L74.3,42.4z M83.9,42.4h-4.8V43h4.8V42.4L83.9,42.4z M93.5,42.4h-4.8V43h4.8V42.4L93.5,42.4z M99,38.9h-0.6v3.5h-0.1V43H99V38.9
			L99,38.9z M99,29.2h-0.6v4.8H99V29.2L99,29.2z M99,19.6h-0.6v4.8H99V19.6L99,19.6z M99,10h-0.6v4.8H99V10L99,10z"/>
	</g>
	<g>
		<rect x="7" y="7" class="st0" width="18" height="5"/>
	</g>
	<text transform="matrix(1 0 0 1 7.6431 11.5254)" class="st1 st2">Parent</text>
	<g>
		<rect x="8" y="13" class="st3" width="88" height="9"/>
		<text transform="matrix(1 0 0 1 16.1274 19.3193)" class="st1 st2">2</text>
	</g>
	<g>
		<rect x="8" y="22" class="st4" width="8" height="9"/>
		<text transform="matrix(1 0 0 1 10.1274 28.3193)" class="st1 st2">3</text>
	</g>
	<g>
		<rect x="8" y="13" class="st5" width="8" height="9"/>
		<text transform="matrix(1 0 0 1 10.1274 19.3193)" class="st1 st2">1</text>
	</g>
</g>
<g id="Layer_4">
	<g>
		<rect x="215" y="10" class="st0" width="94" height="34"/>
		<path d="M309,10h-4.8v0.6h4.8V10L309,10z M299.4,10h-4.8v0.6h4.8V10L299.4,10z M289.8,10h-4.8v0.6h4.8V10L289.8,10z M280.1,10
			h-4.8v0.6h4.8V10L280.1,10z M270.5,10h-4.8v0.6h4.8V10L270.5,10z M260.9,10h-4.8v0.6h4.8V10L260.9,10z M251.3,10h-4.8v0.6h4.8V10
			L251.3,10z M241.6,10h-4.8v0.6h4.8V10L241.6,10z M232,10h-4.8v0.6h4.8V10L232,10z M222.4,10h-4.8v0.6h4.8V10L222.4,10z
			 M215.6,12.2H215V17h0.6V12.2L215.6,12.2z M215.6,21.8H215v4.8h0.6V21.8L215.6,21.8z M215.6,31.5H215v4.8h0.6V31.5L215.6,31.5z
			 M215.6,41.1H215V44h0.6l0,0l0,0l0,0l0,0c0.6,0,1.3,0,1.3,0v-0.6h-1.3V41.1L215.6,41.1z M226.5,43.4h-4.8V44h4.8V43.4L226.5,43.4z
			 M236.2,43.4h-4.8V44h4.8V43.4L236.2,43.4z M245.8,43.4H241V44h4.8V43.4L245.8,43.4z M255.4,43.4h-4.8V44h4.8V43.4L255.4,43.4z
			 M265,43.4h-4.8V44h4.8V43.4L265,43.4z M274.6,43.4h-4.8V44h4.8V43.4L274.6,43.4z M284.3,43.4h-4.8V44h4.8V43.4L284.3,43.4z
			 M293.9,43.4h-4.8V44h4.8V43.4L293.9,43.4z M303.5,43.4h-4.8V44h4.8V43.4L303.5,43.4z M309,39.9h-0.6v3.5h-0.1V44h0.7V39.9
			L309,39.9z M309,30.2h-0.6v4.8h0.6V30.2L309,30.2z M309,20.6h-0.6v4.8h0.6V20.6L309,20.6z M309,11h-0.6v4.8h0.6V11L309,11z"/>
	</g>
	<g>
		<rect x="217" y="8" class="st0" width="18" height="5"/>
	</g>
	<text transform="matrix(1 0 0 1 217.6431 12.5254)" class="st1 st2">Parent</text>
	<g>
		<rect x="218" y="14" class="st3" width="88" height="5"/>
		<text transform="matrix(1 0 0 1 226.1274 20.3193)" class="st1 st2">2</text>
	</g>
	<g>
		<rect x="226" y="19" class="st4" width="8" height="9"/>
		<text transform="matrix(1 0 0 1 228.1274 25.3193)" class="st1 st2">3</text>
	</g>
	<g>
		<rect x="218" y="14" class="st5" width="8" height="9"/>
		<text transform="matrix(1 0 0 1 220.1274 20.3193)" class="st1 st2">1</text>
	</g>
</g>
<g id="Layer_5">
	<g>
		<rect x="425" y="9" class="st0" width="94" height="34"/>
		<path d="M519,9h-4.8v0.6h4.8V9L519,9z M509.4,9h-4.8v0.6h4.8V9L509.4,9z M499.8,9h-4.8v0.6h4.8V9L499.8,9z M490.1,9h-4.8v0.6h4.8
			V9L490.1,9z M480.5,9h-4.8v0.6h4.8V9L480.5,9z M470.9,9h-4.8v0.6h4.8V9L470.9,9z M461.3,9h-4.8v0.6h4.8V9L461.3,9z M451.6,9h-4.8
			v0.6h4.8V9L451.6,9z M442,9h-4.8v0.6h4.8V9L442,9z M432.4,9h-4.8v0.6h4.8V9L432.4,9z M425.6,11.2H425V16h0.6V11.2L425.6,11.2z
			 M425.6,20.8H425v4.8h0.6V20.8L425.6,20.8z M425.6,30.5H425v4.8h0.6V30.5L425.6,30.5z M425.6,40.1H425V43h0.6l0,0l0,0l0,0l0,0
			c0.6,0,1.3,0,1.3,0v-0.6h-1.3V40.1L425.6,40.1z M436.5,42.4h-4.8V43h4.8V42.4L436.5,42.4z M446.2,42.4h-4.8V43h4.8V42.4
			L446.2,42.4z M455.8,42.4H451V43h4.8V42.4L455.8,42.4z M465.4,42.4h-4.8V43h4.8V42.4L465.4,42.4z M475,42.4h-4.8V43h4.8V42.4
			L475,42.4z M484.6,42.4h-4.8V43h4.8V42.4L484.6,42.4z M494.3,42.4h-4.8V43h4.8V42.4L494.3,42.4z M503.9,42.4h-4.8V43h4.8V42.4
			L503.9,42.4z M513.5,42.4h-4.8V43h4.8V42.4L513.5,42.4z M519,38.9h-0.6v3.5h-0.1V43h0.7V38.9L519,38.9z M519,29.2h-0.6v4.8h0.6
			V29.2L519,29.2z M519,19.6h-0.6v4.8h0.6V19.6L519,19.6z M519,10h-0.6v4.8h0.6V10L519,10z"/>
	</g>
	<g>
		<rect x="427" y="7" class="st0" width="18" height="5"/>
	</g>
	<text transform="matrix(1 0 0 1 427.6431 11.5254)" class="st1 st2">Parent</text>
	<g>
		<rect x="428" y="18" class="st6" width="88" height="9"/>
		<text transform="matrix(1 0 0 1 444.1274 24.3193)" class="st1 st2">4</text>
	</g>
	<g>
		<rect x="428" y="13" class="st3" width="88" height="5"/>
		<text transform="matrix(1 0 0 1 436.1274 19.3193)" class="st1 st2">2</text>
	</g>
	<g>
		<rect x="436" y="18" class="st4" width="8" height="9"/>
		<text transform="matrix(1 0 0 1 438.1274 24.3193)" class="st1 st2">3</text>
	</g>
	<g>
		<rect x="428" y="13" class="st5" width="8" height="9"/>
		<text transform="matrix(1 0 0 1 430.1274 19.3193)" class="st1 st2">1</text>
	</g>
</g>
<g id="Layer_6">
	<g>
		<rect x="320" y="9" class="st0" width="94" height="34"/>
		<path d="M414,9h-4.8v0.6h4.8V9L414,9z M404.4,9h-4.8v0.6h4.8V9L404.4,9z M394.8,9h-4.8v0.6h4.8V9L394.8,9z M385.1,9h-4.8v0.6h4.8
			V9L385.1,9z M375.5,9h-4.8v0.6h4.8V9L375.5,9z M365.9,9h-4.8v0.6h4.8V9L365.9,9z M356.3,9h-4.8v0.6h4.8V9L356.3,9z M346.6,9h-4.8
			v0.6h4.8V9L346.6,9z M337,9h-4.8v0.6h4.8V9L337,9z M327.4,9h-4.8v0.6h4.8V9L327.4,9z M320.6,11.2H320V16h0.6V11.2L320.6,11.2z
			 M320.6,20.8H320v4.8h0.6V20.8L320.6,20.8z M320.6,30.5H320v4.8h0.6V30.5L320.6,30.5z M320.6,40.1H320V43h0.6l0,0l0,0l0,0l0,0
			c0.6,0,1.3,0,1.3,0v-0.6h-1.3V40.1L320.6,40.1z M331.5,42.4h-4.8V43h4.8V42.4L331.5,42.4z M341.2,42.4h-4.8V43h4.8V42.4
			L341.2,42.4z M350.8,42.4H346V43h4.8V42.4L350.8,42.4z M360.4,42.4h-4.8V43h4.8V42.4L360.4,42.4z M370,42.4h-4.8V43h4.8V42.4
			L370,42.4z M379.6,42.4h-4.8V43h4.8V42.4L379.6,42.4z M389.3,42.4h-4.8V43h4.8V42.4L389.3,42.4z M398.9,42.4h-4.8V43h4.8V42.4
			L398.9,42.4z M408.5,42.4h-4.8V43h4.8V42.4L408.5,42.4z M414,38.9h-0.6v3.5h-0.1V43h0.7V38.9L414,38.9z M414,29.2h-0.6v4.8h0.6
			V29.2L414,29.2z M414,19.6h-0.6v4.8h0.6V19.6L414,19.6z M414,10h-0.6v4.8h0.6V10L414,10z"/>
	</g>
	<g>
		<rect x="322" y="7" class="st0" width="18" height="5"/>
	</g>
	<text transform="matrix(1 0 0 1 322.6431 11.5254)" class="st1 st2">Parent</text>
	<g>
		<rect x="331" y="13" class="st4" width="8" height="9"/>
		<text transform="matrix(1 0 0 1 333.1274 19.3193)" class="st1 st2">3</text>
	</g>
	<g>
		<rect x="323" y="13" class="st5" width="8" height="9"/>
		<text transform="matrix(1 0 0 1 325.1274 19.3193)" class="st1 st2">1</text>
	</g>
</g>
<g id="Layer_7">
	<g>
		<rect x="110" y="10" class="st0" width="94" height="34"/>
		<path d="M204,10h-4.8v0.6h4.8V10L204,10z M194.4,10h-4.8v0.6h4.8V10L194.4,10z M184.8,10h-4.8v0.6h4.8V10L184.8,10z M175.1,10
			h-4.8v0.6h4.8V10L175.1,10z M165.5,10h-4.8v0.6h4.8V10L165.5,10z M155.9,10h-4.8v0.6h4.8V10L155.9,10z M146.3,10h-4.8v0.6h4.8V10
			L146.3,10z M136.6,10h-4.8v0.6h4.8V10L136.6,10z M127,10h-4.8v0.6h4.8V10L127,10z M117.4,10h-4.8v0.6h4.8V10L117.4,10z
			 M110.6,12.2H110V17h0.6V12.2L110.6,12.2z M110.6,21.8H110v4.8h0.6V21.8L110.6,21.8z M110.6,31.5H110v4.8h0.6V31.5L110.6,31.5z
			 M110.6,41.1H110V44h0.6l0,0l0,0l0,0l0,0c0.6,0,1.3,0,1.3,0v-0.6h-1.3V41.1L110.6,41.1z M121.5,43.4h-4.8V44h4.8V43.4L121.5,43.4z
			 M131.2,43.4h-4.8V44h4.8V43.4L131.2,43.4z M140.8,43.4H136V44h4.8V43.4L140.8,43.4z M150.4,43.4h-4.8V44h4.8V43.4L150.4,43.4z
			 M160,43.4h-4.8V44h4.8V43.4L160,43.4z M169.6,43.4h-4.8V44h4.8V43.4L169.6,43.4z M179.3,43.4h-4.8V44h4.8V43.4L179.3,43.4z
			 M188.9,43.4h-4.8V44h4.8V43.4L188.9,43.4z M198.5,43.4h-4.8V44h4.8V43.4L198.5,43.4z M204,39.9h-0.6v3.5h-0.1V44h0.7V39.9
			L204,39.9z M204,30.2h-0.6v4.8h0.6V30.2L204,30.2z M204,20.6h-0.6v4.8h0.6V20.6L204,20.6z M204,11h-0.6v4.8h0.6V11L204,11z"/>
	</g>
	<g>
		<rect x="112" y="8" class="st0" width="18" height="5"/>
	</g>
	<text transform="matrix(1 0 0 1 112.6431 12.5254)" class="st1 st2">Parent</text>
	<g>
		<rect x="113" y="14" class="st3" width="88" height="18"/>
		<text transform="matrix(1 0 0 1 121.1274 20.3193)" class="st1 st2">2</text>
	</g>
	<g>
		<rect x="113" y="32" class="st4" width="8" height="9"/>
		<text transform="matrix(1 0 0 1 115.1274 38.3193)" class="st1 st2">3</text>
	</g>
	<g>
		<rect x="113" y="14" class="st5" width="8" height="9"/>
		<text transform="matrix(1 0 0 1 115.1274 20.3193)" class="st1 st2">1</text>
	</g>
</g>
</svg>
