<?xml version="1.0" encoding="utf-8"?>
<!-- Generator: Adobe Illustrator 24.1.2, SVG Export Plug-In . SVG Version: 6.00 Build 0)  -->
<svg version="1.1" xmlns="http://www.w3.org/2000/svg" xmlns:xlink="http://www.w3.org/1999/xlink" x="0px" y="0px"
	 viewBox="0 0 100 39" style="enable-background:new 0 0 100 39;" xml:space="preserve">
<style type="text/css">
	.st0{fill:#FFFFFF;}
	.st1{font-family:'MyriadPro-Regular';}
	.st2{font-size:6px;}
	.st3{display:none;}
	.st4{display:inline;}
	.st5{fill:#0000FF;}
	.st6{fill:#C1272D;}
	.st7{fill:#009245;}
	.st8{fill:#00FF00;}
</style>
<g id="Layer_1">
	<g>
		<rect x="3" y="3" class="st0" width="94" height="34"/>
		<path d="M97,3h-4.8v0.6H97V3L97,3z M87.4,3h-4.8v0.6h4.8V3L87.4,3z M77.8,3h-4.8v0.6h4.8V3L77.8,3z M68.1,3h-4.8v0.6h4.8V3L68.1,3
			z M58.5,3h-4.8v0.6h4.8V3L58.5,3z M48.9,3h-4.8v0.6h4.8V3L48.9,3z M39.3,3h-4.8v0.6h4.8V3L39.3,3z M29.6,3h-4.8v0.6h4.8V3L29.6,3z
			 M20,3h-4.8v0.6H20V3L20,3z M10.4,3H5.6v0.6h4.8V3L10.4,3z M3.6,5.2H3V10h0.6V5.2L3.6,5.2z M3.6,14.8H3v4.8h0.6V14.8L3.6,14.8z
			 M3.6,24.5H3v4.8h0.6V24.5L3.6,24.5z M3.6,34.1H3V37h0.6l0,0l0,0l0,0l0,0c0.6,0,1.3,0,1.3,0v-0.6H3.6V34.1L3.6,34.1z M14.5,36.4
			H9.7V37h4.8V36.4L14.5,36.4z M24.2,36.4h-4.8V37h4.8V36.4L24.2,36.4z M33.8,36.4H29V37h4.8V36.4L33.8,36.4z M43.4,36.4h-4.8V37
			h4.8V36.4L43.4,36.4z M53,36.4h-4.8V37H53V36.4L53,36.4z M62.6,36.4h-4.8V37h4.8V36.4L62.6,36.4z M72.3,36.4h-4.8V37h4.8V36.4
			L72.3,36.4z M81.9,36.4h-4.8V37h4.8V36.4L81.9,36.4z M91.5,36.4h-4.8V37h4.8V36.4L91.5,36.4z M97,32.9h-0.6v3.5h-0.1V37H97V32.9
			L97,32.9z M97,23.2h-0.6v4.8H97V23.2L97,23.2z M97,13.6h-0.6v4.8H97V13.6L97,13.6z M97,4h-0.6v4.8H97V4L97,4z"/>
	</g>
	<g>
		<rect x="5" y="1" class="st0" width="18" height="5"/>
	</g>
	<text transform="matrix(1 0 0 1 5.6431 5.5254)" class="st1 st2">Parent</text>
</g>
<g id="Layer_2" class="st3">
	<g class="st4">
		<rect x="6" y="7" class="st5" width="88" height="9"/>
		<text transform="matrix(1 0 0 1 49.1274 13.3193)" class="st1 st2">1</text>
	</g>
	<g class="st4">
		<rect x="6" y="16" class="st6" width="88" height="9"/>
		<text transform="matrix(1 0 0 1 6.1274 22.3193)" class="st1 st2">2</text>
	</g>
	<g class="st4">
		<rect x="6" y="25" class="st7" width="88" height="9"/>
		<text transform="matrix(1 0 0 1 49.1274 31.3193)" class="st1 st2">3</text>
	</g>
</g>
<g id="Layer_3">
	<g>
		<rect x="6" y="7" class="st6" width="88" height="9"/>
		<text transform="matrix(1 0 0 1 6.1274 13.3193)" class="st1 st2">2</text>
	</g>
	<g>
		<rect x="6" y="16" class="st7" width="88" height="9"/>
		<text transform="matrix(1 0 0 1 49.1274 22.3193)" class="st1 st2">3</text>
	</g>
	<g>
		<rect x="47" y="7" class="st5" width="8" height="9"/>
		<text transform="matrix(1 0 0 1 49.1274 13.3193)" class="st1 st2">1</text>
	</g>
</g>
<g id="Layer_4" class="st3">
	<g class="st4">
		<rect x="6" y="7" class="st6" width="88" height="9"/>
		<text transform="matrix(1 0 0 1 6.1274 13.3193)" class="st1 st2">2</text>
	</g>
	<g class="st4">
		<rect x="6" y="16" class="st7" width="88" height="9"/>
		<text transform="matrix(1 0 0 1 49.1274 22.3193)" class="st1 st2">3</text>
	</g>
	<g class="st4">
		<rect x="6" y="7" class="st5" width="8" height="9"/>
		<text transform="matrix(1 0 0 1 8.1274 13.3193)" class="st1 st2">1</text>
	</g>
</g>
<g id="Layer_5" class="st3">
	<g class="st4">
		<rect x="6" y="7" class="st6" width="88" height="9"/>
		<text transform="matrix(1 0 0 1 14.1274 13.3193)" class="st1 st2">2</text>
	</g>
	<g class="st4">
		<rect x="6" y="16" class="st7" width="88" height="9"/>
		<text transform="matrix(1 0 0 1 49.1274 22.3193)" class="st1 st2">3</text>
	</g>
	<g class="st4">
		<rect x="6" y="7" class="st5" width="8" height="9"/>
		<text transform="matrix(1 0 0 1 8.1274 13.3193)" class="st1 st2">1</text>
	</g>
	<g class="st4">
		<rect x="6" y="7" class="st6" width="88" height="9"/>
		<text transform="matrix(1 0 0 1 14.1274 13.3193)" class="st1 st2">2</text>
	</g>
	<g class="st4">
		<rect x="6" y="16" class="st7" width="88" height="9"/>
		<text transform="matrix(1 0 0 1 49.1274 22.3193)" class="st1 st2">3</text>
	</g>
	<g class="st4">
		<rect x="6" y="7" class="st5" width="8" height="9"/>
		<text transform="matrix(1 0 0 1 8.1274 13.3193)" class="st1 st2">1</text>
	</g>
</g>
<g id="Layer_6" class="st3">
	<g class="st4">
		<rect x="6" y="7" class="st6" width="88" height="9"/>
		<text transform="matrix(1 0 0 1 14.1274 13.3193)" class="st1 st2">2</text>
	</g>
	<g class="st4">
		<rect x="6" y="16" class="st7" width="8" height="9"/>
		<text transform="matrix(1 0 0 1 8.1274 22.3193)" class="st1 st2">3</text>
	</g>
	<g class="st4">
		<rect x="6" y="7" class="st5" width="8" height="9"/>
		<text transform="matrix(1 0 0 1 8.1274 13.3193)" class="st1 st2">1</text>
	</g>
</g>
<g id="Layer_7" class="st3">
	<g class="st4">
		<rect x="6" y="7" class="st6" width="88" height="5"/>
		<text transform="matrix(1 0 0 1 14.1274 13.3193)" class="st1 st2">2</text>
	</g>
	<g class="st4">
		<rect x="14" y="12" class="st7" width="8" height="9"/>
		<text transform="matrix(1 0 0 1 16.1274 18.3193)" class="st1 st2">3</text>
	</g>
	<g class="st4">
		<rect x="6" y="7" class="st5" width="8" height="9"/>
		<text transform="matrix(1 0 0 1 8.1274 13.3193)" class="st1 st2">1</text>
	</g>
</g>
<g id="Layer_10" class="st3">
	<g class="st4">
		<rect x="6" y="12" class="st8" width="88" height="9"/>
		<text transform="matrix(1 0 0 1 22.1274 18.3193)" class="st1 st2">4</text>
	</g>
	<g class="st4">
		<rect x="6" y="7" class="st6" width="88" height="5"/>
		<text transform="matrix(1 0 0 1 14.1274 13.3193)" class="st1 st2">2</text>
	</g>
	<g class="st4">
		<rect x="14" y="12" class="st7" width="8" height="9"/>
		<text transform="matrix(1 0 0 1 16.1274 18.3193)" class="st1 st2">3</text>
	</g>
	<g class="st4">
		<rect x="6" y="7" class="st5" width="8" height="9"/>
		<text transform="matrix(1 0 0 1 8.1274 13.3193)" class="st1 st2">1</text>
	</g>
</g>
<g id="Layer_8" class="st3">
	<g class="st4">
		<rect x="14" y="7" class="st7" width="8" height="9"/>
		<text transform="matrix(1 0 0 1 16.1274 13.3193)" class="st1 st2">3</text>
	</g>
	<g class="st4">
		<rect x="6" y="7" class="st5" width="8" height="9"/>
		<text transform="matrix(1 0 0 1 8.1274 13.3193)" class="st1 st2">1</text>
	</g>
</g>
<g id="Layer_9" class="st3">
	<g class="st4">
		<rect x="6" y="7" class="st6" width="88" height="18"/>
		<text transform="matrix(1 0 0 1 14.1274 13.3193)" class="st1 st2">2</text>
	</g>
	<g class="st4">
		<rect x="6" y="25" class="st7" width="8" height="9"/>
		<text transform="matrix(1 0 0 1 8.1274 31.3193)" class="st1 st2">3</text>
	</g>
	<g class="st4">
		<rect x="6" y="7" class="st5" width="8" height="9"/>
		<text transform="matrix(1 0 0 1 8.1274 13.3193)" class="st1 st2">1</text>
	</g>
</g>
</svg>
