<?xml version="1.0" encoding="utf-8"?>
<!-- Generator: Adobe Illustrator 24.1.2, SVG Export Plug-In . SVG Version: 6.00 Build 0)  -->
<svg version="1.1" id="Layer_1" xmlns="http://www.w3.org/2000/svg" xmlns:xlink="http://www.w3.org/1999/xlink" x="0px" y="0px"
	 viewBox="0 0 514 326.4" style="enable-background:new 0 0 514 326.4;" xml:space="preserve">
<style type="text/css">
	.st0{fill:#FFFFFF;}
	.st1{fill:#256B97;}
	.st2{font-family:'MyriadPro-Regular';}
	.st3{font-size:23px;}
	.st4{fill:#F5FEFF;}
	.st5{font-size:14px;}
	.st6{fill:#FFFFFF;stroke:#C4C4C4;}
	.st7{fill:#0C0C0C;}
	.st8{font-size:9px;}
	.st9{fill:#00A54D;}
	.st10{fill:#DC4700;}
	.st11{fill:#FFFFFA;}
	.st12{fill:#EC0A0D;}
	.st13{fill:#266A99;}
	.st14{fill:none;stroke:#BF232A;stroke-width:1.5;stroke-miterlimit:10;}
	.st15{fill:#BF232A;}
	.st16{fill:none;stroke:#206E86;stroke-width:1.5;stroke-miterlimit:10;}
	.st17{fill:none;stroke:#206E86;stroke-width:1.6134;stroke-miterlimit:10;}
	.st18{fill:#206E86;}
	.st19{fill:none;stroke:#009F23;stroke-width:1.5;stroke-miterlimit:10;}
	.st20{fill:none;stroke:#009F23;stroke-width:0.8343;stroke-miterlimit:10;}
	.st21{fill:#009F23;}
	.st22{fill:#51B5E3;stroke:#2C4E5E;stroke-miterlimit:10;}
	.st23{fill:#02A9CE;stroke:#2C4E5E;stroke-miterlimit:10;}
	.st24{fill:#2FC3F1;stroke:#2C4E5E;stroke-miterlimit:10;}
	.st25{fill:#2FC3F1;stroke:#2C4E5E;stroke-width:0.9836;stroke-miterlimit:10;}
	.st26{fill:#DBE9F7;}
	.st27{fill:#3F4E57;}
</style>
<rect class="st0" width="514" height="326.4"/>
<g id="Docker">
	<path class="st1" d="M495.2,49.6H23.7c-3.3,0-6-2.7-6-6V18.1c0-3.3,2.7-6,6-6h471.5c3.3,0,6,2.7,6,6v25.4
		C501.3,46.8,498.5,49.6,495.2,49.6z"/>
	<text transform="matrix(1 0 0 1 228.1487 39.6811)" class="st0 st2 st3">Docker</text>
</g>
<g id="Host">
	<path class="st1" d="M324.3,318.4H195.8c-4.4,0-8.1-3.6-8.1-8.1V103.6c0-4.4,3.6-8.1,8.1-8.1h128.5c4.4,0,8.1,3.6,8.1,8.1v206.8
		C332.4,314.8,328.8,318.4,324.3,318.4z"/>
	<path class="st4" d="M322.4,317H197.1c-4.2,0-7.6-3.4-7.6-7.6V120.8c0-4.2,3.4-7.6,7.6-7.6h125.3c4.2,0,7.6,3.4,7.6,7.6v188.7
		C330,313.6,326.6,317,322.4,317z"/>
	<text transform="matrix(1 0 0 1 246.7017 109.1494)" class="st0 st2 st5">Host</text>
</g>
<g id="Deamon">
	<path class="st1" d="M324,143.3H197.2c-1.2,0-2.1-0.9-2.1-2.1v-12.6c0-1.2,0.9-2.1,2.1-2.1H324c1.2,0,2.1,0.9,2.1,2.1v12.6
		C326.1,142.3,325.2,143.3,324,143.3z"/>
	<text transform="matrix(1 0 0 1 235.9783 138.766)" class="st0 st2 st5">Deamon</text>
</g>
<g id="Client">
	<g>
		<path class="st1" d="M157.3,226.5H23.9c-3.4,0-6.2-2.8-6.2-6.2V101.7c0-3.4,2.8-6.2,6.2-6.2h133.4c3.4,0,6.2,2.8,6.2,6.2v118.6
			C163.5,223.7,160.7,226.5,157.3,226.5z"/>
		<path class="st4" d="M155.9,224.6H25.3c-3.1,0-5.6-2.5-5.6-5.6V118.5c0-3.1,2.5-5.6,5.6-5.6h130.6c3.1,0,5.6,2.5,5.6,5.6V219
			C161.5,222.1,159,224.6,155.9,224.6z"/>
		<text transform="matrix(1 0 0 1 67.2123 109.1492)" class="st0 st2 st5">Client</text>
	</g>
	<g>
		<rect x="26.6" y="133.4" class="st6" width="128.6" height="74.9"/>
		<rect x="26.6" y="138" class="st7" width="124.4" height="70.4"/>
		<g>
			<text transform="matrix(1 0 0 1 29.9519 148.1275)"><tspan x="0" y="0" class="st0 st2 st8">C:\Users\Cucumber&gt; </tspan><tspan x="0" y="21.6" class="st0 st2 st8">docker build</tspan><tspan x="0" y="32.4" class="st0 st2 st8">docker pull</tspan><tspan x="0" y="43.2" class="st0 st2 st8">docker run</tspan></text>
		</g>
	</g>
</g>
<g id="Container">
	<path class="st1" d="M255.4,167.8h-58.9c-0.7,0-1.3-0.6-1.3-1.3v-10.9c0-0.7,0.6-1.3,1.3-1.3h58.9c0.7,0,1.3,0.6,1.3,1.3v10.9
		C256.7,167.2,256.1,167.8,255.4,167.8z"/>
	<text transform="matrix(1 0 0 1 209.957 163.3405)" class="st0 st2 st8">Container</text>
	<g>
		<path class="st0" d="M252.5,305.3h-53.2c-2.3,0-4.1-1.9-4.1-4.1V166.4h61.5v134.7C256.7,303.4,254.8,305.3,252.5,305.3z"/>
		<path class="st1" d="M256.7,166.4h-5v1h5V166.4L256.7,166.4z M246.7,166.4h-5v1h5V166.4L246.7,166.4z M236.7,166.4h-5v1h5V166.4
			L236.7,166.4z M226.7,166.4h-5v1h5V166.4L226.7,166.4z M216.7,166.4h-5v1h5V166.4L216.7,166.4z M206.7,166.4h-5v1h5V166.4
			L206.7,166.4z M196.7,166.4h-1.5v1l0,0c0,1,0,2.5,0,2.5h1v-2.5h0.5V166.4L196.7,166.4z M196.1,174.9h-1v5h1V174.9L196.1,174.9z
			 M196.1,184.9h-1v5h1V184.9L196.1,184.9z M196.1,194.9h-1v5h1V194.9L196.1,194.9z M196.1,204.9h-1v5h1V204.9L196.1,204.9z
			 M196.1,214.9h-1v5h1V214.9L196.1,214.9z M196.1,224.9h-1v5h1V224.9L196.1,224.9z M196.1,234.9h-1v5h1V234.9L196.1,234.9z
			 M196.1,244.9h-1v5h1V244.9L196.1,244.9z M196.1,254.9h-1v5h1V254.9L196.1,254.9z M196.1,264.9h-1v5h1V264.9L196.1,264.9z
			 M196.1,274.9h-1v5h1V274.9L196.1,274.9z M196.1,284.9h-1v5h1V284.9L196.1,284.9z M196.1,294.9h-1v5h1V294.9L196.1,294.9z
			 M197.3,303.6l-0.6,0.8c0.6,0.5,1.3,0.8,2.1,0.9c0,0,0,0,0,0c0,0,0,0,0,0c0,0,0,0,0,0c0,0,0,0,0,0c0,0,0,0,0,0c0,0,0,0,0,0
			c0,0,0,0,0,0c0,0,0,0,0,0c0,0,0,0,0,0c0,0,0,0,0,0c0,0,0,0,0,0c0,0,0,0,0,0c0,0,0,0,0,0c0,0,0,0,0,0c0,0,0,0,0,0c0,0,0,0,0,0
			c0,0,0,0,0,0c0,0,0,0,0,0c0,0,0,0,0,0c0,0,0,0,0,0c0,0,0,0,0,0c0,0,0,0,0,0c0,0,0,0,0,0c0,0,0,0,0,0c0,0,0,0,0,0c0,0,0,0,0,0
			c0,0,0,0,0,0c0,0,0,0,0,0c0,0,0,0,0,0c0,0,0,0,0,0c0,0,0,0,0,0c0,0,0,0,0,0c0,0,0,0,0,0c0,0,0,0,0,0c0,0,0,0,0,0c0,0,0,0,0,0
			c0,0,0,0,0,0c0,0,0,0,0,0c0,0,0,0,0,0c0,0,0,0,0,0c0,0,0,0,0,0c0,0,0,0,0,0c0,0,0,0,0,0c0,0,0,0,0,0c0,0,0,0,0,0c0,0,0,0,0,0
			c0,0,0,0,0,0c0,0,0,0,0,0c0,0,0,0,0,0c0,0,0,0,0,0c0,0,0,0,0,0c0,0,0,0,0,0c0,0,0,0,0,0c0,0,0,0,0,0c0,0,0,0,0,0c0,0,0,0,0,0
			c0,0,0,0,0,0c0,0,0,0,0,0c0,0,0,0,0,0c0,0,0,0,0,0c0,0,0,0,0,0c0,0,0,0,0,0c0,0,0,0,0,0c0,0,0,0,0,0c0,0,0,0,0,0c0,0,0,0,0,0
			c0,0,0,0,0,0c0,0,0,0,0,0c0,0,0,0,0,0c0,0,0,0,0,0c0,0,0,0,0,0c0,0,0,0,0,0c0,0,0,0,0,0c0,0,0,0,0,0c0,0,0,0,0,0c0,0,0,0,0,0
			c0,0,0,0,0,0c0,0,0,0,0,0c0,0,0,0,0,0c0,0,0,0,0,0c0,0,0,0,0,0c0,0,0,0,0,0c0,0,0,0,0,0c0,0,0,0,0,0c0,0,0,0,0,0c0,0,0,0,0,0
			c0,0,0,0,0,0c0,0,0,0,0,0c0,0,0,0,0,0c0,0,0,0,0,0c0,0,0,0,0,0c0,0,0,0,0,0c0,0,0,0,0,0c0,0,0,0,0,0c0,0,0,0,0,0c0,0,0,0,0,0
			c0,0,0,0,0,0c0,0,0,0,0,0c0,0,0,0,0,0c0,0,0,0,0,0c0,0,0,0,0,0c0,0,0,0,0,0c0,0,0,0,0,0c0,0,0,0,0,0c0,0,0,0,0,0c0,0,0,0,0,0
			c0,0,0,0,0,0c0,0,0,0,0,0c0,0,0,0,0,0c0,0,0,0,0,0c0,0,0,0,0,0c0,0,0,0,0,0c0,0,0,0,0,0c0,0,0,0,0,0c0,0,0,0,0,0c0,0,0,0,0,0
			c0,0,0,0,0,0c0,0,0,0,0,0c0,0,0,0,0,0c0,0,0,0,0,0c0,0,0,0,0,0c0,0,0,0,0,0c0,0,0,0,0,0c0,0,0,0,0,0c0,0,0,0,0,0c0,0,0,0,0,0
			c0,0,0,0,0,0c0,0,0,0,0,0c0,0,0,0,0,0c0,0,0,0,0,0c0,0,0,0,0,0c0,0,0,0,0,0l0,0h2.2v-1h-2.2C198.6,304.3,197.9,304.1,197.3,303.6
			L197.3,303.6z M211.5,304.3h-5v1h5V304.3L211.5,304.3z M221.5,304.3h-5v1h5V304.3L221.5,304.3z M231.5,304.3h-5v1h5V304.3
			L231.5,304.3z M241.5,304.3h-5v1h5V304.3L241.5,304.3z M251.5,304.3h-5v1h5V304.3L251.5,304.3z M256.7,298.7h-1v2.5
			c0,0.7-0.2,1.3-0.6,1.8l0.8,0.6c0-0.1,0.1-0.1,0.1-0.2c0,0,0,0,0,0c0,0,0,0,0,0c0,0,0,0,0,0c0,0,0,0,0,0c0,0,0,0,0,0c0,0,0,0,0,0
			c0,0,0,0,0,0c0,0,0,0,0,0c0,0,0,0,0,0c0,0,0,0,0,0c0,0,0,0,0,0c0,0,0,0,0,0c0,0,0,0,0,0c0,0,0,0,0,0c0,0,0,0,0,0c0,0,0,0,0,0
			c0,0,0,0,0,0c0,0,0,0,0,0c0,0,0,0,0,0c0,0,0,0,0,0c0,0,0,0,0,0c0,0,0,0,0,0c0,0,0,0,0,0c0,0,0,0,0,0c0,0,0,0,0,0c0,0,0,0,0,0
			c0,0,0,0,0,0c0,0,0,0,0,0c0,0,0,0,0,0c0,0,0,0,0,0c0,0,0,0,0,0c0,0,0,0,0,0c0,0,0,0,0,0c0,0,0,0,0,0c0,0,0,0,0,0c0,0,0,0,0,0
			c0,0,0,0,0,0c0,0,0,0,0,0c0,0,0,0,0,0c0,0,0,0,0,0c0,0,0,0,0,0c0,0,0,0,0,0c0,0,0,0,0,0c0,0,0,0,0,0c0,0,0,0,0,0c0,0,0,0,0,0
			c0,0,0,0,0,0c0,0,0,0,0,0c0,0,0,0,0,0c0,0,0,0,0,0c0,0,0,0,0,0c0,0,0,0,0,0c0,0,0,0,0,0c0,0,0,0,0,0c0,0,0,0,0,0c0,0,0,0,0,0
			c0,0,0,0,0,0c0,0,0,0,0,0c0,0,0,0,0,0c0,0,0,0,0,0c0,0,0,0,0,0c0,0,0,0,0,0c0,0,0,0,0,0c0,0,0,0,0,0c0,0,0,0,0,0c0,0,0,0,0,0
			c0,0,0,0,0,0c0,0,0,0,0,0c0,0,0,0,0,0c0,0,0,0,0,0c0,0,0,0,0,0c0,0,0,0,0,0c0,0,0,0,0,0c0,0,0,0,0,0c0,0,0,0,0,0c0,0,0,0,0,0
			c0,0,0,0,0,0c0,0,0,0,0,0c0,0,0,0,0,0c0,0,0,0,0,0c0,0,0,0,0,0c0,0,0,0,0,0c0,0,0,0,0,0c0,0,0,0,0,0c0,0,0,0,0,0c0,0,0,0,0,0
			c0,0,0,0,0,0c0,0,0,0,0,0c0,0,0,0,0,0c0,0,0,0,0,0c0,0,0,0,0,0c0,0,0,0,0,0c0,0,0,0,0,0c0,0,0,0,0,0c0,0,0,0,0,0c0,0,0,0,0,0
			c0,0,0,0,0,0c0,0,0,0,0,0c0,0,0,0,0,0c0,0,0,0,0,0c0,0,0,0,0,0c0,0,0,0,0,0c0,0,0,0,0,0c0,0,0,0,0,0c0,0,0,0,0,0c0,0,0,0,0,0
			c0,0,0,0,0,0c0,0,0,0,0,0c0,0,0,0,0,0c0,0,0,0,0,0c0,0,0,0,0,0c0,0,0,0,0,0c0,0,0,0,0,0c0,0,0,0,0,0c0,0,0,0,0,0c0,0,0,0,0,0
			c0,0,0,0,0,0c0,0,0,0,0,0c0,0,0,0,0,0c0,0,0,0,0,0c0,0,0,0,0,0c0,0,0,0,0,0c0,0,0,0,0,0c0,0,0,0,0,0c0,0,0,0,0,0c0,0,0,0,0,0
			c0,0,0,0,0,0c0,0,0,0,0,0c0,0,0,0,0,0c0,0,0,0,0,0c0,0,0,0,0,0c0,0,0,0,0,0c0,0,0,0,0,0c0,0,0,0,0,0c0,0,0,0,0,0c0,0,0,0,0,0
			c0,0,0,0,0,0c0,0,0,0,0,0c0,0,0,0,0,0c0,0,0,0,0,0c0,0,0,0,0,0c0,0,0,0,0,0c0,0,0,0,0,0c0,0,0,0,0,0c0,0,0,0,0,0c0,0,0,0,0,0
			c0,0,0,0,0,0c0,0,0,0,0,0c0,0,0,0,0,0c0,0,0,0,0,0c0,0,0,0,0,0c0,0,0,0,0,0c0,0,0,0,0,0c0,0,0,0,0,0c0,0,0,0,0,0l0,0c0,0,0,0,0,0
			c0,0,0,0,0,0c0,0,0,0,0,0c0,0,0,0,0,0c0,0,0,0,0,0c0,0,0,0,0,0c0,0,0,0,0,0c0,0,0,0,0,0c0,0,0,0,0,0c0,0,0,0,0,0c0,0,0,0,0,0
			c0,0,0,0,0,0c0,0,0,0,0,0c0,0,0,0,0,0c0,0,0,0,0,0c0,0,0,0,0,0c0,0,0,0,0,0c0,0,0,0,0,0c0,0,0,0,0,0c0,0,0,0,0,0c0,0,0,0,0,0
			c0,0,0,0,0,0c0,0,0,0,0,0l0,0c0,0,0,0,0,0c0,0,0,0,0,0c0,0,0,0,0,0c0,0,0,0,0,0c0,0,0,0,0,0c0,0,0,0,0,0c0,0,0,0,0,0c0,0,0,0,0,0
			c0,0,0,0,0,0c0,0,0,0,0,0c0,0,0,0,0,0c0,0,0,0,0,0c0,0,0,0,0,0c0,0,0,0,0,0c0,0,0,0,0,0c0,0,0,0,0,0c0,0,0,0,0,0c0,0,0,0,0,0
			c0,0,0,0,0,0c0,0,0,0,0,0c0,0,0,0,0,0c0,0,0,0,0,0c0,0,0,0,0,0c0,0,0,0,0,0c0,0,0,0,0,0c0,0,0,0,0,0c0,0,0,0,0,0c0,0,0,0,0,0
			c0,0,0,0,0,0c0,0,0,0,0,0c0,0,0,0,0,0v0c0,0,0,0,0,0c0,0,0,0,0,0c0,0,0,0,0,0c0,0,0,0,0,0c0,0,0,0,0,0c0,0,0,0,0,0c0,0,0,0,0,0
			c0,0,0,0,0,0c0,0,0,0,0,0c0,0,0,0,0,0c0,0,0,0,0,0c0,0,0,0,0,0c0,0,0,0,0,0c0,0,0,0,0,0c0,0,0,0,0,0c0,0,0,0,0,0c0,0,0,0,0,0
			c0,0,0,0,0,0c0,0,0,0,0,0c0,0,0,0,0,0c0,0,0,0,0,0c0,0,0,0,0,0c0,0,0,0,0,0c0,0,0,0,0,0c0,0,0,0,0,0c0,0,0,0,0,0c0,0,0,0,0,0
			c0,0,0,0,0,0c0,0,0,0,0,0c0,0,0,0,0,0c0,0,0,0,0,0c0,0,0,0,0,0c0,0,0,0,0,0c0,0,0,0,0,0c0,0,0,0,0,0c0,0,0,0,0,0c0,0,0,0,0,0
			c0,0,0,0,0,0c0,0,0,0,0,0c0,0,0,0,0,0c0,0,0,0,0,0c0,0,0,0,0,0c0,0,0,0,0,0c0,0,0,0,0,0c0,0,0,0,0,0c0,0,0,0,0,0c0,0,0,0,0,0
			c0,0,0,0,0,0c0,0,0,0,0,0c0,0,0,0,0,0c0,0,0,0,0,0c0,0,0,0,0,0c0,0,0,0,0,0c0,0,0,0,0,0c0,0,0,0,0,0c0,0,0,0,0,0c0,0,0,0,0,0
			c0,0,0,0,0,0c0,0,0,0,0,0c0,0,0,0,0,0c0,0,0,0,0,0c0,0,0,0,0,0c0,0,0,0,0,0c0,0,0,0,0,0c0,0,0,0,0,0c0,0,0,0,0,0c0,0,0,0,0,0
			c0,0,0,0,0,0c0,0,0,0,0,0c0,0,0,0,0,0c0,0,0,0,0,0c0,0,0,0,0,0c0,0,0,0,0,0c0,0,0,0,0,0c0,0,0,0,0,0c0,0,0,0,0,0c0,0,0,0,0,0
			c0,0,0,0,0,0c0,0,0,0,0,0c0,0,0,0,0,0c0,0,0,0,0,0c0,0,0,0,0,0c0,0,0,0,0,0c0,0,0,0,0,0c0,0,0,0,0,0c0,0,0,0,0,0c0,0,0,0,0,0
			c0,0,0,0,0,0c0,0,0,0,0,0c0,0,0,0,0,0c0,0,0,0,0,0c0,0,0,0,0,0c0,0,0,0,0,0c0,0,0,0,0,0c0,0,0,0,0,0c0,0,0,0,0,0c0,0,0,0,0,0
			c0,0,0,0,0,0c0,0,0,0,0,0c0,0,0,0,0,0c0,0,0,0,0,0c0,0,0,0,0,0c0,0,0,0,0,0c0,0,0,0,0,0c0,0,0,0,0,0c0,0,0,0,0,0c0,0,0,0,0,0
			c0,0,0,0,0,0c0,0,0,0,0,0c0,0,0,0,0,0c0,0,0,0,0,0c0,0,0,0,0,0c0,0,0,0,0,0c0,0,0,0,0,0c0,0,0,0,0,0c0,0,0,0,0,0c0,0,0,0,0,0
			c0,0,0,0,0,0c0,0,0,0,0,0c0,0,0,0,0,0c0,0,0,0,0,0c0,0,0,0,0,0c0,0,0,0,0,0c0,0,0,0,0,0c0,0,0,0,0,0c0,0,0,0,0,0c0,0,0,0,0,0
			c0,0,0,0,0,0c0,0,0,0,0,0c0,0,0,0,0,0c0,0,0,0,0,0c0,0,0,0,0,0c0,0,0,0,0,0c0,0,0,0,0,0c0,0,0,0,0,0c0,0,0,0,0,0c0,0,0,0,0,0
			c0,0,0,0,0,0c0,0,0,0,0,0c0,0,0,0,0,0c0,0,0,0,0,0c0,0,0,0,0,0c0,0,0,0,0,0c0,0,0,0,0,0c0,0,0,0,0,0c0,0,0,0,0,0c0,0,0,0,0,0
			c0,0,0,0,0,0c0,0,0,0,0,0c0,0,0,0,0,0c0,0,0,0,0,0c0,0,0,0,0,0c0,0,0,0,0,0c0,0,0,0,0,0c0,0,0,0,0,0c0,0,0,0,0,0s0,0,0,0
			c0,0,0,0,0,0c0,0,0,0,0,0c0,0,0,0,0,0c0,0,0,0,0,0c0,0,0,0,0,0c0,0,0,0,0,0c0,0,0,0,0,0c0,0,0,0,0,0c0,0,0,0,0,0c0,0,0,0,0,0
			c0,0,0,0,0,0c0,0,0,0,0,0c0,0,0,0,0,0c0,0,0,0,0,0s0,0,0,0c0,0,0,0,0,0c0,0,0,0,0,0c0,0,0,0,0,0c0,0,0,0,0,0c0,0,0,0,0,0
			c0,0,0,0,0,0c0,0,0,0,0,0c0,0,0,0,0,0c0,0,0,0,0,0c0,0,0,0,0,0c0,0,0,0,0,0c0,0,0,0,0,0c0,0,0,0,0,0c0,0,0,0,0,0c0,0,0,0,0,0
			c0,0,0,0,0,0c0,0,0,0,0,0c0,0,0,0,0,0c0,0,0,0,0,0c0,0,0,0,0,0c0,0,0,0,0,0c0,0,0,0,0,0c0,0,0,0,0,0c0,0,0,0,0,0c0,0,0,0,0,0
			c0,0,0,0,0,0c0,0,0,0,0,0c0,0,0,0,0,0c0,0,0,0,0,0c0,0,0,0,0,0c0,0,0,0,0,0c0,0,0,0,0,0c0,0,0,0,0,0c0,0,0,0,0,0c0,0,0,0,0,0
			c0,0,0,0,0,0c0,0,0,0,0,0c0,0,0,0,0,0c0,0,0,0,0,0c0,0,0,0,0,0c0,0,0,0,0,0c0,0,0,0,0,0c0,0,0,0,0,0c0,0,0,0,0,0c0,0,0,0,0,0
			c0,0,0,0,0,0c0,0,0,0,0,0c0,0,0,0,0,0c0,0,0,0,0,0c0,0,0,0,0,0c0,0,0,0,0,0c0,0,0,0,0,0c0,0,0,0,0,0c0,0,0,0,0,0c0,0,0,0,0,0
			c0,0,0,0,0,0c0,0,0,0,0,0c0,0,0,0,0,0c0,0,0,0,0,0c0,0,0,0,0,0c0,0,0,0,0,0c0,0,0,0,0,0c0,0,0,0,0,0c0,0,0,0,0,0c0,0,0,0,0,0
			c0,0,0,0,0,0c0,0,0,0,0,0c0,0,0,0,0,0c0,0,0,0,0,0c0,0,0,0,0,0c0,0,0,0,0,0c0,0,0,0,0,0c0,0,0,0,0,0c0,0,0,0,0,0c0,0,0,0,0,0
			c0,0,0,0,0,0c0,0,0,0,0,0c0,0,0,0,0,0c0,0,0,0,0,0c0,0,0,0,0,0c0,0,0,0,0,0c0,0,0,0,0,0c0,0,0,0,0,0c0,0,0,0,0,0c0,0,0,0,0,0
			c0,0,0,0,0,0c0,0,0,0,0,0c0,0,0,0,0,0c0,0,0,0,0,0c0,0,0,0,0,0c0,0,0,0,0,0c0,0,0,0,0,0c0,0,0,0,0,0c0,0,0,0,0,0c0,0,0,0,0,0
			c0,0,0,0,0,0c0,0,0,0,0,0c0,0,0,0,0,0c0,0,0,0,0,0c0,0,0,0,0,0c0,0,0,0,0,0c0,0,0,0,0,0c0,0,0,0,0,0c0,0,0,0,0,0c0,0,0,0,0,0
			c0,0,0,0,0,0c0,0,0,0,0,0c0,0,0,0,0,0c0,0,0,0,0,0c0,0,0,0,0,0c0,0,0,0,0,0c0,0,0,0,0,0c0,0,0,0,0,0c0,0,0,0,0,0c0,0,0,0,0,0
			c0,0,0,0,0,0c0,0,0,0,0,0c0,0,0,0,0,0c0,0,0,0,0,0c0,0,0,0,0,0c0,0,0,0,0,0c0,0,0,0,0,0c0,0,0,0,0,0c0,0,0,0,0,0c0,0,0,0,0,0
			c0,0,0,0,0,0c0,0,0,0,0,0c0,0,0,0,0,0c0,0,0,0,0,0c0,0,0,0,0,0c0,0,0,0,0,0c0,0,0,0,0,0c0,0,0,0,0,0c0,0,0,0,0,0c0,0,0,0,0,0
			c0,0,0,0,0,0c0,0,0,0,0,0c0,0,0,0,0,0c0,0,0,0,0,0c0,0,0,0,0,0c0,0,0,0,0,0c0,0,0,0,0,0c0,0,0,0,0,0c0,0,0,0,0,0c0,0,0,0,0,0
			c0,0,0,0,0,0c0,0,0,0,0,0c0,0,0,0,0,0c0,0,0,0,0,0c0,0,0,0,0,0c0,0,0,0,0,0c0,0,0,0,0,0c0,0,0,0,0,0c0,0,0,0,0,0c0,0,0,0,0,0
			c0,0,0,0,0,0c0,0,0,0,0,0c0,0,0,0,0,0c0,0,0,0,0,0c0,0,0,0,0,0c0,0,0,0,0,0c0,0,0,0,0,0c0,0,0,0,0,0c0,0,0,0,0,0c0,0,0,0,0,0
			c0,0,0,0,0,0c0,0,0,0,0,0c0,0,0,0,0,0c0,0,0,0,0,0c0,0,0,0,0,0c0,0,0,0,0,0c0,0,0,0,0,0c0,0,0,0,0,0c0,0,0,0,0,0c0,0,0,0,0,0
			c0,0,0,0,0,0c0,0,0,0,0,0c0,0,0,0,0,0c0,0,0,0,0,0c0,0,0,0,0,0c0,0,0,0,0,0c0,0,0,0,0,0c0,0,0,0,0,0c0,0,0,0,0,0c0,0,0,0,0,0
			c0,0,0,0,0,0c0,0,0,0,0,0c0,0,0,0,0,0c0,0,0,0,0,0c0,0,0,0,0,0c0,0,0,0,0,0c0,0,0,0,0,0c0,0,0,0,0,0c0,0,0,0,0,0c0,0,0,0,0,0
			c0,0,0,0,0,0c0,0,0,0,0,0c0,0,0,0,0,0c0,0,0,0,0,0c0,0,0,0,0,0c0,0,0,0,0,0c0,0,0,0,0,0c0,0,0,0,0,0c0,0,0,0,0,0c0,0,0,0,0,0
			c0,0,0,0,0,0c0,0,0,0,0,0c0,0,0,0,0,0c0,0,0,0,0,0c0,0,0,0,0,0c0,0,0,0,0,0c0,0,0,0,0,0c0,0,0,0,0,0c0,0,0,0,0,0c0,0,0,0,0,0
			c0,0,0,0,0,0c0,0,0,0,0,0c0,0,0,0,0,0c0,0,0,0,0,0c0,0,0,0,0,0c0,0,0,0,0,0c0,0,0,0,0,0c0,0,0,0,0,0c0,0,0,0,0,0c0,0,0,0,0,0
			c0,0,0,0,0,0c0,0,0,0,0,0c0,0,0,0,0,0c0,0,0,0,0,0c0,0,0,0,0,0c0,0,0,0,0,0c0,0,0,0,0,0c0,0,0,0,0,0c0,0,0,0,0,0c0,0,0,0,0,0
			c0,0,0,0,0,0c0,0,0,0,0,0c0,0,0,0,0,0c0,0,0,0,0,0c0,0,0,0,0,0c0,0,0,0,0,0c0,0,0,0,0,0c0,0,0,0,0,0c0,0,0,0,0,0c0,0,0,0,0,0
			c0,0,0,0,0,0c0,0,0,0,0,0c0,0,0,0,0,0c0,0,0,0,0,0c0,0,0,0,0,0c0,0,0,0,0,0c0,0,0,0,0,0c0,0,0,0,0,0c0,0,0,0,0,0c0,0,0,0,0,0
			c0,0,0,0,0,0c0,0,0,0,0,0c0,0,0,0,0,0c0,0,0,0,0,0c0,0,0,0,0,0c0,0,0,0,0,0c0,0,0,0,0,0c0,0,0,0,0,0c0,0,0,0,0,0c0,0,0,0,0,0
			c0,0,0,0,0,0c0,0,0,0,0,0c0,0,0,0,0,0c0,0,0,0,0,0c0,0,0,0,0,0l0,0V298.7L256.7,298.7z M256.7,288.7h-1v5h1V288.7L256.7,288.7z
			 M256.7,278.7h-1v5h1V278.7L256.7,278.7z M256.7,268.7h-1v5h1V268.7L256.7,268.7z M256.7,258.7h-1v5h1V258.7L256.7,258.7z
			 M256.7,248.7h-1v5h1V248.7L256.7,248.7z M256.7,238.7h-1v5h1V238.7L256.7,238.7z M256.7,228.7h-1v5h1V228.7L256.7,228.7z
			 M256.7,218.7h-1v5h1V218.7L256.7,218.7z M256.7,208.7h-1v5h1V208.7L256.7,208.7z M256.7,198.7h-1v5h1V198.7L256.7,198.7z
			 M256.7,188.7h-1v5h1V188.7L256.7,188.7z M256.7,178.7h-1v5h1V178.7L256.7,178.7z M256.7,168.7h-1v5h1V168.7L256.7,168.7z"/>
	</g>
	<g>
		<path class="st0" d="M202.7,201.2c-0.4,0-0.8-0.4-0.8-0.8v-25.1c0-0.4,0.4-0.8,0.8-0.8h46.4c0.4,0,0.8,0.4,0.8,0.8v25.1
			c0,0.4-0.4,0.8-0.8,0.8H202.7z"/>
		<path class="st1" d="M249.1,174.8c0.3,0,0.6,0.3,0.6,0.6v25.1c0,0.3-0.3,0.6-0.6,0.6h-46.4c-0.3,0-0.6-0.3-0.6-0.6v-25.1
			c0-0.3,0.3-0.6,0.6-0.6H249.1 M249.1,174.4h-46.4c-0.6,0-1,0.4-1,1v25.1c0,0.6,0.4,1,1,1h46.4c0.6,0,1-0.4,1-1v-25.1
			C250.1,174.8,249.7,174.4,249.1,174.4L249.1,174.4z"/>
	</g>
	<g>
		<path class="st0" d="M202.7,232.9c-0.4,0-0.8-0.4-0.8-0.8V207c0-0.4,0.4-0.8,0.8-0.8h46.4c0.4,0,0.8,0.4,0.8,0.8v25.1
			c0,0.4-0.4,0.8-0.8,0.8H202.7z"/>
		<path class="st1" d="M249.1,206.4c0.3,0,0.6,0.3,0.6,0.6v25.1c0,0.3-0.3,0.6-0.6,0.6h-46.4c-0.3,0-0.6-0.3-0.6-0.6V207
			c0-0.3,0.3-0.6,0.6-0.6H249.1 M249.1,206h-46.4c-0.6,0-1,0.4-1,1v25.1c0,0.6,0.4,1,1,1h46.4c0.6,0,1-0.4,1-1V207
			C250.1,206.5,249.7,206,249.1,206L249.1,206z"/>
	</g>
	<g>
		<path class="st0" d="M202.7,264.5c-0.4,0-0.8-0.4-0.8-0.8v-25.1c0-0.4,0.4-0.8,0.8-0.8h46.4c0.4,0,0.8,0.4,0.8,0.8v25.1
			c0,0.4-0.4,0.8-0.8,0.8H202.7z"/>
		<path class="st1" d="M249.1,238.1c0.3,0,0.6,0.3,0.6,0.6v25.1c0,0.3-0.3,0.6-0.6,0.6h-46.4c-0.3,0-0.6-0.3-0.6-0.6v-25.1
			c0-0.3,0.3-0.6,0.6-0.6H249.1 M249.1,237.7h-46.4c-0.6,0-1,0.4-1,1v25.1c0,0.6,0.4,1,1,1h46.4c0.6,0,1-0.4,1-1v-25.1
			C250.1,238.1,249.7,237.7,249.1,237.7L249.1,237.7z"/>
	</g>
	<g>
		<path class="st0" d="M202.7,296.2c-0.4,0-0.8-0.4-0.8-0.8v-25.1c0-0.4,0.4-0.8,0.8-0.8h46.4c0.4,0,0.8,0.4,0.8,0.8v25.1
			c0,0.4-0.4,0.8-0.8,0.8H202.7z"/>
		<path class="st1" d="M249.1,269.7c0.3,0,0.6,0.3,0.6,0.6v25.1c0,0.3-0.3,0.6-0.6,0.6h-46.4c-0.3,0-0.6-0.3-0.6-0.6v-25.1
			c0-0.3,0.3-0.6,0.6-0.6H249.1 M249.1,269.3h-46.4c-0.6,0-1,0.4-1,1v25.1c0,0.6,0.4,1,1,1h46.4c0.6,0,1-0.4,1-1v-25.1
			C250.1,269.8,249.7,269.3,249.1,269.3L249.1,269.3z"/>
	</g>
	<path id="Nginx" class="st9" d="M228.3,224.1c0,0,0.9-1.2,1.2-1.6s0-0.7-0.2-0.7c-0.2,0-4.7,0-4.7,0s-0.9-0.1-0.9-1.3
		c0-1.2,0.8-1.2,0.8-1.2h9.3l-3.9,7.2h-8.1l-4-6.9l3.8-7h8.4l3,5.1h-3.3l-1.3-2.5h-4.9l-2.3,4.5l2.4,4.4L228.3,224.1z"/>
	<path id="Nginx_1_" class="st9" d="M228.3,255.8c0,0,0.9-1.2,1.2-1.6s0-0.7-0.2-0.7c-0.2,0-4.7,0-4.7,0s-0.9-0.1-0.9-1.3
		c0-1.2,0.8-1.2,0.8-1.2h9.3l-3.9,7.2h-8.1l-4-6.9l3.8-7h8.4l3,5.1h-3.3l-1.3-2.5h-4.9l-2.3,4.5l2.4,4.4L228.3,255.8z"/>
	<g id="Ubuntu">
		<circle class="st10" cx="225.9" cy="187.9" r="9"/>
		<circle class="st11" cx="225.9" cy="187.9" r="5.3"/>
		<circle class="st11" cx="219.9" cy="188" r="1.3"/>
		<circle class="st11" cx="229.2" cy="182.7" r="1.3"/>
		<circle class="st11" cx="229.2" cy="193.3" r="1.3"/>
		<circle class="st10" cx="225.9" cy="187.9" r="3.3"/>
		
			<rect x="223.6" y="180.6" transform="matrix(0.822 -0.5694 0.5694 0.822 -65.0428 160.2819)" class="st10" width="0.6" height="7.3"/>
		
			<rect x="223.4" y="188.3" transform="matrix(0.8059 0.5921 -0.5921 0.8059 157.0402 -95.2023)" class="st10" width="0.6" height="7.3"/>
		
			<rect x="229.9" y="184.4" transform="matrix(6.123234e-17 -1 1 6.123234e-17 42.217 418.2787)" class="st10" width="0.6" height="7.3"/>
	</g>
	<g id="Ubuntu_1_">
		<circle class="st10" cx="225.9" cy="282.9" r="9"/>
		<circle class="st11" cx="225.9" cy="282.9" r="5.3"/>
		<circle class="st11" cx="219.9" cy="283" r="1.3"/>
		<circle class="st11" cx="229.2" cy="277.7" r="1.3"/>
		<circle class="st11" cx="229.2" cy="288.3" r="1.3"/>
		<circle class="st10" cx="225.9" cy="282.9" r="3.3"/>
		
			<rect x="223.6" y="275.6" transform="matrix(0.822 -0.5694 0.5694 0.822 -119.1263 177.1842)" class="st10" width="0.6" height="7.3"/>
		
			<rect x="223.4" y="283.2" transform="matrix(0.8059 0.5921 -0.5921 0.8059 213.2745 -76.7654)" class="st10" width="0.6" height="7.3"/>
		
			<rect x="229.9" y="279.4" transform="matrix(6.123234e-17 -1 1 6.123234e-17 -52.7618 513.2574)" class="st10" width="0.6" height="7.3"/>
	</g>
</g>
<g id="Image">
	<path class="st1" d="M324.8,167.8h-58.9c-0.7,0-1.3-0.6-1.3-1.3v-10.9c0-0.7,0.6-1.3,1.3-1.3h58.9c0.7,0,1.3,0.6,1.3,1.3v10.9
		C326.1,167.2,325.5,167.8,324.8,167.8z"/>
	<text transform="matrix(1 0 0 1 284.1702 163.6809)" class="st0 st2 st8">Image</text>
	<g>
		<path class="st0" d="M322,305.3h-53.2c-2.3,0-4.1-1.9-4.1-4.1V166.4h61.5v134.7C326.1,303.4,324.2,305.3,322,305.3z"/>
		<path class="st1" d="M326.1,166.4h-5v1h5V166.4L326.1,166.4z M316.1,166.4h-5v1h5V166.4L316.1,166.4z M306.1,166.4h-5v1h5V166.4
			L306.1,166.4z M296.1,166.4h-5v1h5V166.4L296.1,166.4z M286.1,166.4h-5v1h5V166.4L286.1,166.4z M276.1,166.4h-5v1h5V166.4
			L276.1,166.4z M266.1,166.4h-1.5v1l0,0c0,1,0,2.5,0,2.5h1v-2.5h0.5V166.4L266.1,166.4z M265.6,174.9h-1v5h1V174.9L265.6,174.9z
			 M265.6,184.9h-1v5h1V184.9L265.6,184.9z M265.6,194.9h-1v5h1V194.9L265.6,194.9z M265.6,204.9h-1v5h1V204.9L265.6,204.9z
			 M265.6,214.9h-1v5h1V214.9L265.6,214.9z M265.6,224.9h-1v5h1V224.9L265.6,224.9z M265.6,234.9h-1v5h1V234.9L265.6,234.9z
			 M265.6,244.9h-1v5h1V244.9L265.6,244.9z M265.6,254.9h-1v5h1V254.9L265.6,254.9z M265.6,264.9h-1v5h1V264.9L265.6,264.9z
			 M265.6,274.9h-1v5h1V274.9L265.6,274.9z M265.6,284.9h-1v5h1V284.9L265.6,284.9z M265.6,294.9h-1v5h1V294.9L265.6,294.9z
			 M266.8,303.6l-0.6,0.8c0.6,0.5,1.3,0.8,2.1,0.9c0,0,0,0,0,0c0,0,0,0,0,0c0,0,0,0,0,0c0,0,0,0,0,0c0,0,0,0,0,0c0,0,0,0,0,0
			c0,0,0,0,0,0c0,0,0,0,0,0c0,0,0,0,0,0c0,0,0,0,0,0c0,0,0,0,0,0c0,0,0,0,0,0c0,0,0,0,0,0c0,0,0,0,0,0c0,0,0,0,0,0c0,0,0,0,0,0
			c0,0,0,0,0,0c0,0,0,0,0,0c0,0,0,0,0,0c0,0,0,0,0,0c0,0,0,0,0,0c0,0,0,0,0,0c0,0,0,0,0,0c0,0,0,0,0,0c0,0,0,0,0,0c0,0,0,0,0,0
			c0,0,0,0,0,0c0,0,0,0,0,0c0,0,0,0,0,0c0,0,0,0,0,0c0,0,0,0,0,0c0,0,0,0,0,0c0,0,0,0,0,0c0,0,0,0,0,0c0,0,0,0,0,0c0,0,0,0,0,0
			c0,0,0,0,0,0c0,0,0,0,0,0c0,0,0,0,0,0c0,0,0,0,0,0c0,0,0,0,0,0c0,0,0,0,0,0c0,0,0,0,0,0c0,0,0,0,0,0c0,0,0,0,0,0c0,0,0,0,0,0
			c0,0,0,0,0,0c0,0,0,0,0,0c0,0,0,0,0,0c0,0,0,0,0,0c0,0,0,0,0,0c0,0,0,0,0,0c0,0,0,0,0,0c0,0,0,0,0,0c0,0,0,0,0,0c0,0,0,0,0,0
			c0,0,0,0,0,0c0,0,0,0,0,0c0,0,0,0,0,0c0,0,0,0,0,0c0,0,0,0,0,0c0,0,0,0,0,0c0,0,0,0,0,0c0,0,0,0,0,0c0,0,0,0,0,0c0,0,0,0,0,0
			c0,0,0,0,0,0c0,0,0,0,0,0c0,0,0,0,0,0c0,0,0,0,0,0c0,0,0,0,0,0c0,0,0,0,0,0c0,0,0,0,0,0c0,0,0,0,0,0c0,0,0,0,0,0c0,0,0,0,0,0
			c0,0,0,0,0,0c0,0,0,0,0,0c0,0,0,0,0,0c0,0,0,0,0,0c0,0,0,0,0,0c0,0,0,0,0,0c0,0,0,0,0,0c0,0,0,0,0,0c0,0,0,0,0,0c0,0,0,0,0,0
			c0,0,0,0,0,0c0,0,0,0,0,0c0,0,0,0,0,0c0,0,0,0,0,0c0,0,0,0,0,0c0,0,0,0,0,0c0,0,0,0,0,0c0,0,0,0,0,0c0,0,0,0,0,0c0,0,0,0,0,0
			c0,0,0,0,0,0c0,0,0,0,0,0c0,0,0,0,0,0c0,0,0,0,0,0c0,0,0,0,0,0c0,0,0,0,0,0c0,0,0,0,0,0c0,0,0,0,0,0c0,0,0,0,0,0c0,0,0,0,0,0
			c0,0,0,0,0,0c0,0,0,0,0,0c0,0,0,0,0,0c0,0,0,0,0,0c0,0,0,0,0,0c0,0,0,0,0,0c0,0,0,0,0,0c0,0,0,0,0,0c0,0,0,0,0,0c0,0,0,0,0,0
			c0,0,0,0,0,0c0,0,0,0,0,0c0,0,0,0,0,0c0,0,0,0,0,0c0,0,0,0,0,0c0,0,0,0,0,0c0,0,0,0,0,0c0,0,0,0,0,0c0,0,0,0,0,0c0,0,0,0,0,0
			c0,0,0,0,0,0c0,0,0,0,0,0c0,0,0,0,0,0c0,0,0,0,0,0c0,0,0,0,0,0c0,0,0,0,0,0l0,0h2.2v-1h-2.2C268,304.3,267.3,304.1,266.8,303.6
			L266.8,303.6z M280.9,304.3h-5v1h5V304.3L280.9,304.3z M290.9,304.3h-5v1h5V304.3L290.9,304.3z M300.9,304.3h-5v1h5V304.3
			L300.9,304.3z M310.9,304.3h-5v1h5V304.3L310.9,304.3z M320.9,304.3h-5v1h5V304.3L320.9,304.3z M326.1,298.7h-1v2.5
			c0,0.7-0.2,1.3-0.6,1.8l0.8,0.6c0-0.1,0.1-0.1,0.1-0.2c0,0,0,0,0,0c0,0,0,0,0,0c0,0,0,0,0,0c0,0,0,0,0,0c0,0,0,0,0,0c0,0,0,0,0,0
			c0,0,0,0,0,0c0,0,0,0,0,0c0,0,0,0,0,0c0,0,0,0,0,0c0,0,0,0,0,0c0,0,0,0,0,0c0,0,0,0,0,0c0,0,0,0,0,0c0,0,0,0,0,0c0,0,0,0,0,0
			c0,0,0,0,0,0c0,0,0,0,0,0c0,0,0,0,0,0c0,0,0,0,0,0c0,0,0,0,0,0c0,0,0,0,0,0c0,0,0,0,0,0c0,0,0,0,0,0c0,0,0,0,0,0c0,0,0,0,0,0
			c0,0,0,0,0,0c0,0,0,0,0,0c0,0,0,0,0,0c0,0,0,0,0,0c0,0,0,0,0,0c0,0,0,0,0,0c0,0,0,0,0,0c0,0,0,0,0,0c0,0,0,0,0,0c0,0,0,0,0,0
			c0,0,0,0,0,0c0,0,0,0,0,0c0,0,0,0,0,0c0,0,0,0,0,0c0,0,0,0,0,0c0,0,0,0,0,0c0,0,0,0,0,0c0,0,0,0,0,0c0,0,0,0,0,0c0,0,0,0,0,0
			c0,0,0,0,0,0c0,0,0,0,0,0c0,0,0,0,0,0c0,0,0,0,0,0c0,0,0,0,0,0c0,0,0,0,0,0c0,0,0,0,0,0c0,0,0,0,0,0c0,0,0,0,0,0c0,0,0,0,0,0
			c0,0,0,0,0,0c0,0,0,0,0,0c0,0,0,0,0,0c0,0,0,0,0,0c0,0,0,0,0,0c0,0,0,0,0,0c0,0,0,0,0,0c0,0,0,0,0,0c0,0,0,0,0,0c0,0,0,0,0,0
			c0,0,0,0,0,0c0,0,0,0,0,0c0,0,0,0,0,0c0,0,0,0,0,0c0,0,0,0,0,0c0,0,0,0,0,0c0,0,0,0,0,0c0,0,0,0,0,0c0,0,0,0,0,0c0,0,0,0,0,0
			c0,0,0,0,0,0c0,0,0,0,0,0c0,0,0,0,0,0c0,0,0,0,0,0c0,0,0,0,0,0c0,0,0,0,0,0c0,0,0,0,0,0c0,0,0,0,0,0c0,0,0,0,0,0c0,0,0,0,0,0
			c0,0,0,0,0,0c0,0,0,0,0,0c0,0,0,0,0,0c0,0,0,0,0,0c0,0,0,0,0,0c0,0,0,0,0,0c0,0,0,0,0,0c0,0,0,0,0,0c0,0,0,0,0,0c0,0,0,0,0,0
			c0,0,0,0,0,0c0,0,0,0,0,0c0,0,0,0,0,0c0,0,0,0,0,0c0,0,0,0,0,0c0,0,0,0,0,0c0,0,0,0,0,0c0,0,0,0,0,0c0,0,0,0,0,0c0,0,0,0,0,0
			c0,0,0,0,0,0c0,0,0,0,0,0c0,0,0,0,0,0c0,0,0,0,0,0s0,0,0,0s0,0,0,0c0,0,0,0,0,0c0,0,0,0,0,0c0,0,0,0,0,0c0,0,0,0,0,0c0,0,0,0,0,0
			c0,0,0,0,0,0c0,0,0,0,0,0c0,0,0,0,0,0c0,0,0,0,0,0c0,0,0,0,0,0c0,0,0,0,0,0c0,0,0,0,0,0c0,0,0,0,0,0c0,0,0,0,0,0c0,0,0,0,0,0
			c0,0,0,0,0,0c0,0,0,0,0,0c0,0,0,0,0,0c0,0,0,0,0,0c0,0,0,0,0,0c0,0,0,0,0,0c0,0,0,0,0,0c0,0,0,0,0,0c0,0,0,0,0,0c0,0,0,0,0,0
			c0,0,0,0,0,0c0,0,0,0,0,0c0,0,0,0,0,0c0,0,0,0,0,0c0,0,0,0,0,0c0,0,0,0,0,0c0,0,0,0,0,0c0,0,0,0,0,0c0,0,0,0,0,0c0,0,0,0,0,0
			c0,0,0,0,0,0c0,0,0,0,0,0c0,0,0,0,0,0c0,0,0,0,0,0c0,0,0,0,0,0c0,0,0,0,0,0c0,0,0,0,0,0c0,0,0,0,0,0l0,0c0,0,0,0,0,0c0,0,0,0,0,0
			c0,0,0,0,0,0c0,0,0,0,0,0c0,0,0,0,0,0c0,0,0,0,0,0c0,0,0,0,0,0c0,0,0,0,0,0c0,0,0,0,0,0c0,0,0,0,0,0c0,0,0,0,0,0c0,0,0,0,0,0
			c0,0,0,0,0,0c0,0,0,0,0,0c0,0,0,0,0,0c0,0,0,0,0,0c0,0,0,0,0,0c0,0,0,0,0,0c0,0,0,0,0,0c0,0,0,0,0,0c0,0,0,0,0,0c0,0,0,0,0,0
			c0,0,0,0,0,0l0,0c0,0,0,0,0,0c0,0,0,0,0,0c0,0,0,0,0,0c0,0,0,0,0,0c0,0,0,0,0,0c0,0,0,0,0,0c0,0,0,0,0,0c0,0,0,0,0,0c0,0,0,0,0,0
			c0,0,0,0,0,0c0,0,0,0,0,0c0,0,0,0,0,0c0,0,0,0,0,0c0,0,0,0,0,0c0,0,0,0,0,0c0,0,0,0,0,0c0,0,0,0,0,0c0,0,0,0,0,0c0,0,0,0,0,0
			c0,0,0,0,0,0c0,0,0,0,0,0c0,0,0,0,0,0c0,0,0,0,0,0c0,0,0,0,0,0c0,0,0,0,0,0c0,0,0,0,0,0c0,0,0,0,0,0c0,0,0,0,0,0c0,0,0,0,0,0
			c0,0,0,0,0,0c0,0,0,0,0,0v0c0,0,0,0,0,0c0,0,0,0,0,0c0,0,0,0,0,0c0,0,0,0,0,0c0,0,0,0,0,0c0,0,0,0,0,0c0,0,0,0,0,0c0,0,0,0,0,0
			c0,0,0,0,0,0c0,0,0,0,0,0c0,0,0,0,0,0c0,0,0,0,0,0c0,0,0,0,0,0c0,0,0,0,0,0c0,0,0,0,0,0c0,0,0,0,0,0c0,0,0,0,0,0c0,0,0,0,0,0
			c0,0,0,0,0,0c0,0,0,0,0,0c0,0,0,0,0,0c0,0,0,0,0,0c0,0,0,0,0,0c0,0,0,0,0,0c0,0,0,0,0,0c0,0,0,0,0,0c0,0,0,0,0,0c0,0,0,0,0,0
			c0,0,0,0,0,0c0,0,0,0,0,0c0,0,0,0,0,0c0,0,0,0,0,0c0,0,0,0,0,0c0,0,0,0,0,0c0,0,0,0,0,0c0,0,0,0,0,0c0,0,0,0,0,0c0,0,0,0,0,0
			c0,0,0,0,0,0c0,0,0,0,0,0c0,0,0,0,0,0c0,0,0,0,0,0c0,0,0,0,0,0c0,0,0,0,0,0c0,0,0,0,0,0c0,0,0,0,0,0c0,0,0,0,0,0c0,0,0,0,0,0
			c0,0,0,0,0,0c0,0,0,0,0,0c0,0,0,0,0,0c0,0,0,0,0,0c0,0,0,0,0,0c0,0,0,0,0,0c0,0,0,0,0,0c0,0,0,0,0,0c0,0,0,0,0,0c0,0,0,0,0,0
			c0,0,0,0,0,0c0,0,0,0,0,0c0,0,0,0,0,0c0,0,0,0,0,0c0,0,0,0,0,0c0,0,0,0,0,0c0,0,0,0,0,0c0,0,0,0,0,0c0,0,0,0,0,0c0,0,0,0,0,0
			c0,0,0,0,0,0c0,0,0,0,0,0c0,0,0,0,0,0c0,0,0,0,0,0c0,0,0,0,0,0c0,0,0,0,0,0c0,0,0,0,0,0c0,0,0,0,0,0c0,0,0,0,0,0c0,0,0,0,0,0
			c0,0,0,0,0,0c0,0,0,0,0,0c0,0,0,0,0,0c0,0,0,0,0,0c0,0,0,0,0,0c0,0,0,0,0,0c0,0,0,0,0,0c0,0,0,0,0,0c0,0,0,0,0,0c0,0,0,0,0,0
			c0,0,0,0,0,0c0,0,0,0,0,0c0,0,0,0,0,0c0,0,0,0,0,0c0,0,0,0,0,0c0,0,0,0,0,0c0,0,0,0,0,0c0,0,0,0,0,0c0,0,0,0,0,0c0,0,0,0,0,0
			c0,0,0,0,0,0c0,0,0,0,0,0c0,0,0,0,0,0c0,0,0,0,0,0c0,0,0,0,0,0c0,0,0,0,0,0c0,0,0,0,0,0c0,0,0,0,0,0c0,0,0,0,0,0c0,0,0,0,0,0
			c0,0,0,0,0,0c0,0,0,0,0,0c0,0,0,0,0,0c0,0,0,0,0,0c0,0,0,0,0,0c0,0,0,0,0,0c0,0,0,0,0,0c0,0,0,0,0,0c0,0,0,0,0,0c0,0,0,0,0,0
			c0,0,0,0,0,0c0,0,0,0,0,0c0,0,0,0,0,0c0,0,0,0,0,0c0,0,0,0,0,0c0,0,0,0,0,0c0,0,0,0,0,0c0,0,0,0,0,0c0,0,0,0,0,0c0,0,0,0,0,0
			c0,0,0,0,0,0c0,0,0,0,0,0c0,0,0,0,0,0c0,0,0,0,0,0c0,0,0,0,0,0c0,0,0,0,0,0c0,0,0,0,0,0c0,0,0,0,0,0c0,0,0,0,0,0c0,0,0,0,0,0
			c0,0,0,0,0,0c0,0,0,0,0,0c0,0,0,0,0,0c0,0,0,0,0,0c0,0,0,0,0,0c0,0,0,0,0,0c0,0,0,0,0,0c0,0,0,0,0,0c0,0,0,0,0,0c0,0,0,0,0,0
			c0,0,0,0,0,0c0,0,0,0,0,0c0,0,0,0,0,0c0,0,0,0,0,0c0,0,0,0,0,0c0,0,0,0,0,0c0,0,0,0,0,0c0,0,0,0,0,0s0,0,0,0c0,0,0,0,0,0
			c0,0,0,0,0,0c0,0,0,0,0,0c0,0,0,0,0,0c0,0,0,0,0,0c0,0,0,0,0,0c0,0,0,0,0,0c0,0,0,0,0,0s0,0,0,0c0,0,0,0,0,0c0,0,0,0,0,0s0,0,0,0
			c0,0,0,0,0,0c0,0,0,0,0,0c0,0,0,0,0,0c0,0,0,0,0,0c0,0,0,0,0,0c0,0,0,0,0,0c0,0,0,0,0,0c0,0,0,0,0,0c0,0,0,0,0,0c0,0,0,0,0,0
			c0,0,0,0,0,0c0,0,0,0,0,0c0,0,0,0,0,0c0,0,0,0,0,0c0,0,0,0,0,0c0,0,0,0,0,0c0,0,0,0,0,0c0,0,0,0,0,0c0,0,0,0,0,0c0,0,0,0,0,0
			c0,0,0,0,0,0c0,0,0,0,0,0c0,0,0,0,0,0c0,0,0,0,0,0c0,0,0,0,0,0c0,0,0,0,0,0c0,0,0,0,0,0c0,0,0,0,0,0c0,0,0,0,0,0c0,0,0,0,0,0
			c0,0,0,0,0,0c0,0,0,0,0,0c0,0,0,0,0,0c0,0,0,0,0,0c0,0,0,0,0,0c0,0,0,0,0,0c0,0,0,0,0,0c0,0,0,0,0,0c0,0,0,0,0,0c0,0,0,0,0,0
			c0,0,0,0,0,0c0,0,0,0,0,0c0,0,0,0,0,0c0,0,0,0,0,0c0,0,0,0,0,0c0,0,0,0,0,0c0,0,0,0,0,0c0,0,0,0,0,0c0,0,0,0,0,0c0,0,0,0,0,0
			c0,0,0,0,0,0c0,0,0,0,0,0c0,0,0,0,0,0c0,0,0,0,0,0c0,0,0,0,0,0c0,0,0,0,0,0c0,0,0,0,0,0c0,0,0,0,0,0c0,0,0,0,0,0c0,0,0,0,0,0
			c0,0,0,0,0,0c0,0,0,0,0,0c0,0,0,0,0,0c0,0,0,0,0,0c0,0,0,0,0,0c0,0,0,0,0,0c0,0,0,0,0,0c0,0,0,0,0,0c0,0,0,0,0,0c0,0,0,0,0,0
			c0,0,0,0,0,0c0,0,0,0,0,0c0,0,0,0,0,0c0,0,0,0,0,0c0,0,0,0,0,0c0,0,0,0,0,0c0,0,0,0,0,0c0,0,0,0,0,0c0,0,0,0,0,0c0,0,0,0,0,0
			c0,0,0,0,0,0c0,0,0,0,0,0c0,0,0,0,0,0c0,0,0,0,0,0c0,0,0,0,0,0c0,0,0,0,0,0c0,0,0,0,0,0c0,0,0,0,0,0c0,0,0,0,0,0c0,0,0,0,0,0
			c0,0,0,0,0,0c0,0,0,0,0,0c0,0,0,0,0,0c0,0,0,0,0,0c0,0,0,0,0,0c0,0,0,0,0,0c0,0,0,0,0,0c0,0,0,0,0,0c0,0,0,0,0,0c0,0,0,0,0,0
			c0,0,0,0,0,0c0,0,0,0,0,0c0,0,0,0,0,0c0,0,0,0,0,0c0,0,0,0,0,0c0,0,0,0,0,0c0,0,0,0,0,0c0,0,0,0,0,0c0,0,0,0,0,0c0,0,0,0,0,0
			c0,0,0,0,0,0c0,0,0,0,0,0c0,0,0,0,0,0c0,0,0,0,0,0c0,0,0,0,0,0c0,0,0,0,0,0c0,0,0,0,0,0c0,0,0,0,0,0c0,0,0,0,0,0c0,0,0,0,0,0
			c0,0,0,0,0,0c0,0,0,0,0,0c0,0,0,0,0,0c0,0,0,0,0,0c0,0,0,0,0,0c0,0,0,0,0,0c0,0,0,0,0,0c0,0,0,0,0,0c0,0,0,0,0,0c0,0,0,0,0,0
			c0,0,0,0,0,0c0,0,0,0,0,0c0,0,0,0,0,0c0,0,0,0,0,0c0,0,0,0,0,0c0,0,0,0,0,0c0,0,0,0,0,0c0,0,0,0,0,0c0,0,0,0,0,0c0,0,0,0,0,0
			c0,0,0,0,0,0c0,0,0,0,0,0c0,0,0,0,0,0c0,0,0,0,0,0c0,0,0,0,0,0c0,0,0,0,0,0c0,0,0,0,0,0c0,0,0,0,0,0c0,0,0,0,0,0c0,0,0,0,0,0
			c0,0,0,0,0,0c0,0,0,0,0,0c0,0,0,0,0,0c0,0,0,0,0,0c0,0,0,0,0,0c0,0,0,0,0,0c0,0,0,0,0,0c0,0,0,0,0,0c0,0,0,0,0,0c0,0,0,0,0,0
			c0,0,0,0,0,0c0,0,0,0,0,0c0,0,0,0,0,0c0,0,0,0,0,0c0,0,0,0,0,0c0,0,0,0,0,0c0,0,0,0,0,0c0,0,0,0,0,0c0,0,0,0,0,0c0,0,0,0,0,0
			c0,0,0,0,0,0c0,0,0,0,0,0c0,0,0,0,0,0c0,0,0,0,0,0c0,0,0,0,0,0c0,0,0,0,0,0c0,0,0,0,0,0c0,0,0,0,0,0c0,0,0,0,0,0c0,0,0,0,0,0
			c0,0,0,0,0,0c0,0,0,0,0,0c0,0,0,0,0,0c0,0,0,0,0,0c0,0,0,0,0,0c0,0,0,0,0,0c0,0,0,0,0,0c0,0,0,0,0,0c0,0,0,0,0,0c0,0,0,0,0,0
			c0,0,0,0,0,0c0,0,0,0,0,0c0,0,0,0,0,0c0,0,0,0,0,0c0,0,0,0,0,0c0,0,0,0,0,0c0,0,0,0,0,0c0,0,0,0,0,0c0,0,0,0,0,0c0,0,0,0,0,0
			c0,0,0,0,0,0c0,0,0,0,0,0c0,0,0,0,0,0c0,0,0,0,0,0c0,0,0,0,0,0c0,0,0,0,0,0c0,0,0,0,0,0c0,0,0,0,0,0c0,0,0,0,0,0c0,0,0,0,0,0
			c0,0,0,0,0,0c0,0,0,0,0,0c0,0,0,0,0,0c0,0,0,0,0,0c0,0,0,0,0,0c0,0,0,0,0,0c0,0,0,0,0,0c0,0,0,0,0,0c0,0,0,0,0,0c0,0,0,0,0,0
			c0,0,0,0,0,0c0,0,0,0,0,0c0,0,0,0,0,0c0,0,0,0,0,0c0,0,0,0,0,0c0,0,0,0,0,0c0,0,0,0,0,0c0,0,0,0,0,0c0,0,0,0,0,0c0,0,0,0,0,0
			c0,0,0,0,0,0c0,0,0,0,0,0c0,0,0,0,0,0c0,0,0,0,0,0c0,0,0,0,0,0c0,0,0,0,0,0c0,0,0,0,0,0c0,0,0,0,0,0c0,0,0,0,0,0c0,0,0,0,0,0
			c0,0,0,0,0,0c0,0,0,0,0,0c0,0,0,0,0,0c0,0,0,0,0,0c0,0,0,0,0,0c0,0,0,0,0,0c0,0,0,0,0,0c0,0,0,0,0,0c0,0,0,0,0,0c0,0,0,0,0,0
			c0,0,0,0,0,0c0,0,0,0,0,0c0,0,0,0,0,0c0,0,0,0,0,0c0,0,0,0,0,0c0,0,0,0,0,0c0,0,0,0,0,0c0,0,0,0,0,0c0,0,0,0,0,0c0,0,0,0,0,0
			c0,0,0,0,0,0c0,0,0,0,0,0c0,0,0,0,0,0c0,0,0,0,0,0c0,0,0,0,0,0c0,0,0,0,0,0c0,0,0,0,0,0c0,0,0,0,0,0c0,0,0,0,0,0c0,0,0,0,0,0
			c0,0,0,0,0,0c0,0,0,0,0,0c0,0,0,0,0,0l0,0V298.7L326.1,298.7z M326.1,288.7h-1v5h1V288.7L326.1,288.7z M326.1,278.7h-1v5h1V278.7
			L326.1,278.7z M326.1,268.7h-1v5h1V268.7L326.1,268.7z M326.1,258.7h-1v5h1V258.7L326.1,258.7z M326.1,248.7h-1v5h1V248.7
			L326.1,248.7z M326.1,238.7h-1v5h1V238.7L326.1,238.7z M326.1,228.7h-1v5h1V228.7L326.1,228.7z M326.1,218.7h-1v5h1V218.7
			L326.1,218.7z M326.1,208.7h-1v5h1V208.7L326.1,208.7z M326.1,198.7h-1v5h1V198.7L326.1,198.7z M326.1,188.7h-1v5h1V188.7
			L326.1,188.7z M326.1,178.7h-1v5h1V178.7L326.1,178.7z M326.1,168.7h-1v5h1V168.7L326.1,168.7z"/>
	</g>
	<path id="Nginx_3_" class="st9" d="M301.3,268.2c0,0,2-2.6,2.5-3.4c0.6-0.8,0.1-1.6-0.5-1.6s-10.3,0-10.3,0s-1.9-0.2-1.9-2.8
		s1.8-2.6,1.8-2.6h20.4l-8.5,15.7h-17.6l-8.7-15.2l8.3-15.3h18.3l6.6,11h-7.2l-2.9-5.5h-10.8l-5,9.9l5.2,9.7L301.3,268.2z"/>
	<g id="Ubuntu_3_">
		<circle class="st10" cx="296" cy="207.5" r="19.6"/>
		<circle class="st11" cx="296" cy="207.5" r="11.5"/>
		<circle class="st11" cx="282.9" cy="207.8" r="2.8"/>
		<circle class="st11" cx="303.1" cy="196.3" r="2.8"/>
		<circle class="st11" cx="303.1" cy="219.4" r="2.8"/>
		<circle class="st10" cx="296" cy="207.5" r="7.2"/>
		
			<rect x="291" y="191.5" transform="matrix(0.822 -0.5694 0.5694 0.822 -61.6787 201.566)" class="st10" width="1.3" height="15.8"/>
		
			<rect x="290.5" y="208.3" transform="matrix(0.8059 0.5921 -0.5921 0.8059 184.5678 -130.4322)" class="st10" width="1.3" height="15.8"/>
		
			<rect x="304.8" y="199.9" transform="matrix(6.123234e-17 -1 1 6.123234e-17 97.6575 513.3052)" class="st10" width="1.3" height="15.8"/>
	</g>
</g>
<g id="Regisrtry">
	<g id="Registry">
		<path class="st1" d="M493.5,225.6H360.2c-3.4,0-6.2-2.8-6.2-6.2V101.8c0-3.4,2.8-6.2,6.2-6.2h133.4c3.4,0,6.2,2.8,6.2,6.2v117.7
			C499.7,222.9,497,225.6,493.5,225.6z"/>
		<path class="st4" d="M491.4,224.2H362.3c-3.1,0-5.6-2.5-5.6-5.6V119c0-3.1,2.5-5.6,5.6-5.6h129.2c3.1,0,5.6,2.5,5.6,5.6v99.6
			C497,221.7,494.5,224.2,491.4,224.2z"/>
		<text transform="matrix(1 0 0 1 364.3405 109.1494)" class="st0 st2 st5">Registry</text>
	</g>
	<g>
		<g>
			<path class="st12" d="M422.9,199.2c-0.6-0.3-1.1-0.6-1.5-1.1c-0.4-0.5-0.5-1-0.5-1.6v-2.4c0-0.6,0.2-1.1,0.5-1.6
				c0.4-0.5,0.8-0.8,1.5-1.1c0.6-0.3,1.4-0.4,2.2-0.4s1.6,0.1,2.2,0.4c0.6,0.3,1.1,0.6,1.5,1.1c0.4,0.5,0.5,1,0.5,1.6v2.4
				c0,0.6-0.2,1.1-0.5,1.6c-0.4,0.5-0.8,0.8-1.5,1.1s-1.4,0.4-2.2,0.4S423.5,199.4,422.9,199.2z M426.4,198.2
				c0.4-0.2,0.7-0.4,0.9-0.7c0.2-0.3,0.3-0.6,0.3-1v-2.4c0-0.4-0.1-0.7-0.3-1c-0.2-0.3-0.5-0.5-0.9-0.7c-0.4-0.2-0.8-0.2-1.3-0.2
				c-0.5,0-0.9,0.1-1.3,0.2c-0.4,0.2-0.7,0.4-0.9,0.7s-0.3,0.6-0.3,1v2.4c0,0.4,0.1,0.7,0.3,1c0.2,0.3,0.5,0.5,0.9,0.7
				c0.4,0.2,0.8,0.2,1.3,0.2C425.6,198.4,426.1,198.3,426.4,198.2z"/>
			<path class="st12" d="M432.1,191.1h1.7v8.3h-1.7V191.1z M432.9,194.8h4.1c0.3,0,0.6-0.1,0.9-0.2c0.2-0.1,0.4-0.3,0.6-0.5
				c0.1-0.2,0.2-0.4,0.2-0.7s-0.1-0.5-0.2-0.7c-0.1-0.2-0.3-0.3-0.6-0.5c-0.2-0.1-0.5-0.2-0.9-0.2h-4.1v-1.1h4.1
				c0.7,0,1.3,0.1,1.8,0.3c0.5,0.2,0.9,0.5,1.2,0.8c0.3,0.4,0.4,0.8,0.4,1.3s-0.1,0.9-0.4,1.3c-0.3,0.4-0.7,0.6-1.2,0.8
				c-0.5,0.2-1.1,0.3-1.8,0.3h-4.1V194.8z M436.1,195.7l1.7-0.3l3.1,4h-2L436.1,195.7z"/>
			<path class="st12" d="M446.5,191.1h1.4l4.5,8.3h-1.8l-3.3-6.7l-3.3,6.7H442L446.5,191.1z M444.1,196.5h6.4v1.1h-6.4V196.5z"/>
			<path class="st12" d="M456,199.2c-0.6-0.3-1.1-0.6-1.5-1.1c-0.3-0.5-0.5-1-0.5-1.6v-2.3c0-0.6,0.2-1.2,0.5-1.6
				c0.3-0.5,0.8-0.8,1.5-1.1c0.6-0.3,1.4-0.4,2.2-0.4c0.7,0,1.3,0.1,1.9,0.3c0.6,0.2,1.1,0.5,1.5,0.9c0.4,0.4,0.7,0.8,0.8,1.3h-1.7
				c-0.1-0.3-0.3-0.5-0.5-0.7c-0.2-0.2-0.5-0.4-0.9-0.5c-0.3-0.1-0.7-0.2-1-0.2c-0.5,0-0.9,0.1-1.3,0.2c-0.4,0.2-0.7,0.4-0.9,0.7
				c-0.2,0.3-0.3,0.6-0.3,1v2.3c0,0.4,0.1,0.7,0.3,1c0.2,0.3,0.5,0.5,0.9,0.7c0.4,0.2,0.8,0.2,1.3,0.2c0.4,0,0.7-0.1,1-0.2
				c0.3-0.1,0.6-0.3,0.9-0.5c0.2-0.2,0.4-0.4,0.5-0.7h1.7c-0.1,0.5-0.4,0.9-0.8,1.3s-0.9,0.7-1.5,0.9c-0.6,0.2-1.2,0.3-1.9,0.3
				C457.3,199.5,456.6,199.4,456,199.2z"/>
			<path class="st12" d="M464.7,191.1h1.7v8.3h-1.7V191.1z M465.6,198.3h6.9v1.1h-6.9V198.3z"/>
			<path class="st12" d="M474.5,191.1h1.7v8.3h-1.7V191.1z M475.3,191.1h6.9v1.1h-6.9V191.1z M475.3,194.8h6v1.1h-6V194.8z
				 M475.3,198.3h6.9v1.1h-6.9V198.3z"/>
		</g>
	</g>
	<g>
		<g>
			<path class="st13" d="M432.2,138.6h2.2v15.6h-2.2V138.6z M433.3,146.1h5c0.5,0,0.9-0.1,1.2-0.3s0.6-0.5,0.8-0.9
				c0.2-0.4,0.3-0.9,0.3-1.4c0-0.5-0.1-1-0.3-1.4c-0.2-0.4-0.5-0.7-0.8-1c-0.4-0.2-0.8-0.3-1.2-0.3h-5v-2.1h4.9
				c0.9,0,1.8,0.2,2.5,0.6c0.7,0.4,1.3,1,1.6,1.7c0.4,0.7,0.6,1.6,0.6,2.5s-0.2,1.8-0.6,2.5c-0.4,0.7-0.9,1.3-1.6,1.7
				s-1.5,0.6-2.5,0.6h-4.9V146.1z"/>
			<path class="st13" d="M445.9,138.6h2.2v15.6h-2.2V138.6z M447.3,145.5h8.7v2.1h-8.7V145.5z M454.8,138.6h2.2v15.6h-2.2V138.6z"/>
			<path class="st13" d="M460.8,138.6h2.2v15.6h-2.2V138.6z M462,146.1h5c0.5,0,0.9-0.1,1.2-0.3s0.6-0.5,0.8-0.9
				c0.2-0.4,0.3-0.9,0.3-1.4c0-0.5-0.1-1-0.3-1.4c-0.2-0.4-0.5-0.7-0.8-1c-0.4-0.2-0.8-0.3-1.2-0.3h-5v-2.1h4.9
				c0.9,0,1.8,0.2,2.5,0.6c0.7,0.4,1.3,1,1.6,1.7c0.4,0.7,0.6,1.6,0.6,2.5s-0.2,1.8-0.6,2.5c-0.4,0.7-0.9,1.3-1.6,1.7
				s-1.5,0.6-2.5,0.6H462V146.1z"/>
		</g>
	</g>
	<path id="Nginx_2_" class="st9" d="M389.3,205.3c0,0,2-2.6,2.5-3.4c0.6-0.8,0.1-1.6-0.5-1.6c-0.5,0-10.3,0-10.3,0s-1.9-0.2-1.9-2.8
		c0-2.6,1.8-2.6,1.8-2.6h20.4l-8.5,15.7h-17.6l-8.7-15.2l8.3-15.3h18.3l6.6,11h-7.2l-2.9-5.5h-10.8l-5,9.9l5.2,9.7L389.3,205.3z"/>
	<g id="Ubuntu_2_">
		<circle class="st10" cx="383.9" cy="144.6" r="19.6"/>
		<circle class="st11" cx="383.9" cy="144.6" r="11.5"/>
		<circle class="st11" cx="370.9" cy="144.9" r="2.8"/>
		<circle class="st11" cx="391.1" cy="133.4" r="2.8"/>
		<circle class="st11" cx="391.1" cy="156.5" r="2.8"/>
		<circle class="st10" cx="383.9" cy="144.6" r="7.2"/>
		
			<rect x="379" y="128.7" transform="matrix(0.822 -0.5694 0.5694 0.822 -10.2158 240.4734)" class="st10" width="1.3" height="15.8"/>
		
			<rect x="378.5" y="145.5" transform="matrix(0.8059 0.5921 -0.5921 0.8059 164.4156 -194.7284)" class="st10" width="1.3" height="15.8"/>
		
			<rect x="392.8" y="137" transform="matrix(6.123234e-17 -1 1 6.123234e-17 248.5178 538.403)" class="st10" width="1.3" height="15.8"/>
	</g>
</g>
<g>
	<g>
		<line class="st14" x1="328.1" y1="136.2" x2="347.7" y2="136.2"/>
		<g>
			<polygon class="st15" points="343.5,141.8 345.9,136.2 343.5,130.7 356.7,136.2 			"/>
		</g>
	</g>
</g>
<g>
	<g>
		<polyline class="st14" points="383.9,224.6 383.9,237.7 335.1,237.7 		"/>
		<g>
			<polygon class="st15" points="339.3,232.1 336.9,237.7 339.3,243.2 326.1,237.7 			"/>
		</g>
	</g>
</g>
<polyline class="st14" points="75.4,178.5 172.7,178.5 172.7,138 193.3,138 "/>
<polyline class="st16" points="81,168.7 166.3,168.7 166.3,135.1 193.3,135.1 "/>
<g>
	<g>
		<polyline class="st17" points="328.7,141 340.5,141 340.5,210.7 331.3,210.7 		"/>
		<g>
			<polygon class="st18" points="335.8,204.7 333.3,210.7 335.8,216.6 321.7,210.7 			"/>
		</g>
	</g>
</g>
<path class="st16" d="M261.3,206.8"/>
<polyline class="st19" points="73.6,189.3 179,189.3 179,141.2 193.3,141.2 "/>
<line class="st20" x1="295.3" y1="144.4" x2="295.3" y2="151.8"/>
<g>
	<g>
		<polyline class="st19" points="274.4,209.3 261.3,209.3 261.3,186.7 246.1,186.7 		"/>
		<g>
			<polygon class="st21" points="250.3,181.2 247.9,186.7 250.3,192.3 237.1,186.7 			"/>
		</g>
	</g>
</g>
<g id="DockerIcon">
	<path class="st22" d="M489.1,82.2c0,0,0.8-5.9-5.5-10.5c-4.3,6-1.8,13.7,0,15.2c-2.8,1.8-5.4,2.6-7.7,2.6c-2.3,0-60.1,0-60.1,0
		s-4.1,28,27.7,28s42.6-22.6,44-28.2c5.7,0,11.5-1.5,12.9-6.3C496.4,79.2,489.1,82.2,489.1,82.2z"/>
	<polygon class="st23" points="423.5,89.5 423.5,80.4 432.3,80.4 432.3,71.8 450.1,71.8 450.1,62.9 459.2,62.9 459.2,80.1 
		468.5,80.1 468.5,89.5 	"/>
	<rect x="432.3" y="80.4" class="st24" width="9.1" height="9.1"/>
	<rect x="441.5" y="71.7" class="st24" width="8.6" height="8.6"/>
	<rect x="450.1" y="80.4" class="st24" width="9.1" height="9.1"/>
	<rect x="450.1" y="62.9" class="st25" width="9.1" height="8.9"/>
	<path class="st26" d="M420.9,107.9c0,0,12,0.6,15.1-1.2c2,2.9,5.7,8.4,10,10.1C440.4,117.2,429,118,420.9,107.9z"/>
	<circle class="st26" cx="440.7" cy="103.6" r="2.2"/>
	<circle class="st27" cx="440.7" cy="103.6" r="1.2"/>
	<g>
		<path class="st27" d="M420.9,106.9c2.7,0.2,5.5,0.3,8.2,0.3c1.4,0,2.8-0.1,4.1-0.2c1.4-0.1,2.7-0.4,4-0.9
			c-1.2,0.7-2.6,1.1-3.9,1.4c-1.4,0.3-2.7,0.5-4.1,0.7c-2.8,0.4-5.6,0.6-8.4,0.7c-0.6,0-1-0.4-1-1c0-0.6,0.4-1,1-1
			C420.8,106.9,420.9,106.9,420.9,106.9L420.9,106.9z"/>
	</g>
</g>
</svg>
