<?xml version="1.0" encoding="utf-8" ?>
<!-- Generator: Adobe Illustrator 24.1.2, SVG Export Plug-In . SVG Version: 6.00 Build 0)  -->
<svg
  version="1.1"
  id="Layer_1"
  xmlns="http://www.w3.org/2000/svg"
  xmlns:xlink="http://www.w3.org/1999/xlink"
  x="0px"
  y="0px"
  viewBox="-10 -10 110 110"
  style="enable-background:new 0 0 100 100;"
  xml:space="preserve"
>
<style type="text/css">
	.st0{fill:#CCCCCC;stroke:none;stroke-width:0;}
</style>
<path
    class="st0"
    d="M7.5,95.2V38.6c0-3,1.3-5.8,3.5-7.7L43.4,3.1c3.2-2.7,7.9-2.8,11.1-0.1l33.3,27.9c2.3,1.9,3.6,4.8,3.6,7.8v56.5
	c0,1.7-1.4,3.2-3.2,3.2H63.6c-1.7,0-3.2-1.4-3.2-3.2V65.2c0-2-1.7-3.7-3.7-3.7H42.3c-2,0-3.7,1.7-3.7,3.7v29.9
	c0,1.7-1.4,3.2-3.2,3.2H10.7C9,98.3,7.5,96.9,7.5,95.2z"
  />
</svg>
