<?xml version="1.0" encoding="utf-8"?>
<!-- Generator: Adobe Illustrator 24.1.2, SVG Export Plug-In . SVG Version: 6.00 Build 0)  -->
<svg version="1.1" xmlns="http://www.w3.org/2000/svg" xmlns:xlink="http://www.w3.org/1999/xlink" x="0px" y="0px"
	 viewBox="0 0 100 100" style="enable-background:new 0 0 100 100;" xml:space="preserve">
<style type="text/css">
	.st0{fill:#DEDDDB;stroke:#060606;stroke-width:0.15;stroke-miterlimit:10;}
	.st1{fill:#DEDDDB;stroke:#060606;stroke-width:0.1653;stroke-miterlimit:10;}
	.st2{fill:#DEDDDB;stroke:#060606;stroke-width:0.119;stroke-miterlimit:10;}
	.st3{fill:#DEDDDB;stroke:#060606;stroke-width:0.1063;stroke-miterlimit:10;}
	.st4{fill:#DEDDDB;stroke:#060606;stroke-width:0.1117;stroke-miterlimit:10;}
	.st5{fill:#DEDDDB;stroke:#060606;stroke-width:9.661003e-02;stroke-miterlimit:10;}
	.st6{fill:#DEDDDB;stroke:#060606;stroke-width:9.830459e-02;stroke-miterlimit:10;}
	.st7{fill:#DEDDDB;stroke:#060606;stroke-width:0.1009;stroke-miterlimit:10;}
	.st8{fill:#DEDDDB;stroke:#060606;stroke-width:0.139;stroke-miterlimit:10;}
	.st9{fill:#DEDDDB;stroke:#060606;stroke-width:0.1474;stroke-miterlimit:10;}
	.st10{fill:#DEDDDB;stroke:#060606;stroke-width:0.1418;stroke-miterlimit:10;}
	.st11{fill:#DEDDDB;stroke:#060606;stroke-width:0.1458;stroke-miterlimit:10;}
	.st12{fill:#DEDDDB;stroke:#060606;stroke-width:0.1295;stroke-miterlimit:10;}
	.st13{fill:#504748;}
	.st14{fill:none;stroke:#504748;stroke-width:0.15;stroke-miterlimit:10;}
	.st15{font-family:'MyriadPro-Regular';}
	.st16{font-size:2px;}
	.st17{font-size:1.8px;}
	.st18{font-size:1.5px;}
	.st19{font-size:1.3px;}
	.st20{font-size:1px;}
	.st21{font-size:1.1px;}
	.st22{display:none;}
</style>
<g id="Layer_1">
	<rect x="40.3" y="9.2" class="st0" width="19" height="4"/>
	<rect x="23.6" y="17.5" class="st1" width="23.1" height="4"/>
	<rect x="3.8" y="25" class="st2" width="13.5" height="3.5"/>
	<rect x="7.5" y="31" class="st3" width="16.9" height="2.3"/>
	<rect x="7.5" y="33.8" class="st3" width="16.9" height="2.3"/>
	<rect x="29.3" y="30.2" class="st3" width="16.9" height="2.3"/>
	<rect x="50.8" y="30.2" class="st4" width="18.7" height="2.3"/>
	<rect x="50.8" y="33" class="st4" width="18.7" height="2.3"/>
	<rect x="50.8" y="35.8" class="st4" width="18.7" height="2.3"/>
	<rect x="50.8" y="38.6" class="st4" width="18.7" height="2.3"/>
	<rect x="29.3" y="46" class="st3" width="16.9" height="2.3"/>
	<rect x="29.3" y="48.7" class="st3" width="16.9" height="2.3"/>
	<rect x="29.3" y="51.4" class="st3" width="16.9" height="2.3"/>
	<rect x="7.5" y="36.5" class="st3" width="16.9" height="2.3"/>
	<rect x="11.4" y="39.7" class="st5" width="14" height="2.3"/>
	<rect x="10.5" y="69.7" class="st6" width="14.5" height="2.3"/>
	<rect x="54.4" y="81.4" class="st6" width="14.5" height="2.3"/>
	<rect x="54.4" y="84" class="st6" width="14.5" height="2.3"/>
	<rect x="79.2" y="70.5" class="st7" width="16.9" height="2"/>
	<rect x="79.2" y="73.1" class="st7" width="16.9" height="2"/>
	<rect x="33.1" y="33" class="st5" width="14" height="2.3"/>
	<rect x="33.1" y="35.6" class="st5" width="14" height="2.3"/>
	<rect x="33.1" y="38.1" class="st5" width="14" height="2.3"/>
	<rect x="33.1" y="40.7" class="st5" width="14" height="2.3"/>
	<rect x="33.1" y="43.2" class="st5" width="14" height="2.3"/>
	<rect x="7.5" y="42.7" class="st3" width="16.9" height="2.3"/>
	<rect x="7.5" y="63.7" class="st3" width="16.9" height="2.3"/>
	<rect x="28.7" y="63.7" class="st3" width="16.9" height="2.3"/>
	<rect x="28.7" y="66.4" class="st3" width="16.9" height="2.3"/>
	<rect x="28.7" y="69.2" class="st3" width="16.9" height="2.3"/>
	<rect x="28.7" y="72" class="st3" width="16.9" height="2.3"/>
	<rect x="28.7" y="74.7" class="st3" width="16.9" height="2.3"/>
	<rect x="28.7" y="77.5" class="st3" width="16.9" height="2.3"/>
	<rect x="50.3" y="64.5" class="st4" width="18.7" height="2.3"/>
	<rect x="74.2" y="64.5" class="st4" width="18.7" height="2.3"/>
	<rect x="74.2" y="67.3" class="st4" width="18.7" height="2.3"/>
	<rect x="74.6" y="76" class="st4" width="18.7" height="2.3"/>
	<rect x="74.6" y="78.8" class="st4" width="18.7" height="2.3"/>
	<rect x="74.6" y="81.6" class="st4" width="18.7" height="2.3"/>
	<rect x="74.6" y="84.4" class="st4" width="18.7" height="2.3"/>
	<rect x="74.6" y="87.2" class="st4" width="18.7" height="2.3"/>
	<rect x="50.3" y="67.3" class="st4" width="18.7" height="2.3"/>
	<rect x="50.3" y="70.1" class="st4" width="18.7" height="2.3"/>
	<rect x="50.3" y="72.9" class="st4" width="18.7" height="2.3"/>
	<rect x="50.3" y="75.7" class="st4" width="18.7" height="2.3"/>
	<rect x="50.3" y="78.6" class="st4" width="18.7" height="2.3"/>
	<rect x="50.3" y="87.2" class="st4" width="18.7" height="2.3"/>
	<rect x="7.5" y="66.6" class="st3" width="16.9" height="2.3"/>
	<rect x="7.5" y="72.8" class="st3" width="16.9" height="2.3"/>
	<rect x="18.1" y="25" class="st2" width="13.5" height="3.5"/>
	<rect x="32.5" y="25" class="st2" width="13.5" height="3.5"/>
	<rect x="3.6" y="58" class="st8" width="17.4" height="3.7"/>
	<rect x="21.8" y="58" class="st9" width="19.6" height="3.7"/>
	<rect x="42.2" y="58" class="st10" width="18.1" height="3.7"/>
	<rect x="61.1" y="58" class="st11" width="19.2" height="3.7"/>
	<rect x="81" y="58" class="st12" width="15.1" height="3.7"/>
	<rect x="46.8" y="25" class="st2" width="13.5" height="3.5"/>
	<rect x="64.1" y="17.5" class="st1" width="23.1" height="4"/>
	<polygon class="st13" points="24.4,25 24.9,24.1 23.9,24.1 	"/>
	<polygon class="st13" points="39.3,25 39.7,24.1 38.8,24.1 	"/>
	<polygon class="st13" points="55.5,25 56,24.1 55,24.1 	"/>
	<polygon class="st13" points="34.6,17.5 35.1,16.7 34.1,16.7 	"/>
	<polygon class="st13" points="12.9,25 13.4,24.1 12.4,24.1 	"/>
	<polygon class="st13" points="76.8,17.4 77.2,16.6 76.3,16.6 	"/>
	<polygon class="st13" points="12.9,58 13.4,57.2 12.4,57.2 	"/>
	<polygon class="st13" points="30.9,58 31.3,57.2 30.4,57.2 	"/>
	<polygon class="st13" points="51.2,58 51.7,57.2 50.7,57.2 	"/>
	<polygon class="st13" points="70.6,58 71.1,57.2 70.2,57.2 	"/>
	<polygon class="st13" points="88.6,58 89.1,57.2 88.1,57.2 	"/>
	<polygon class="st13" points="7.5,32.2 6.8,31.9 6.8,32.6 	"/>
	<polygon class="st13" points="7.5,34.9 6.8,34.5 6.8,35.3 	"/>
	<polygon class="st13" points="7.5,37.6 6.8,37.3 6.8,38 	"/>
	<polygon class="st13" points="11.4,40.8 10.8,40.5 10.8,41.2 	"/>
	<polygon class="st13" points="7.5,43.8 6.8,43.4 6.8,44.2 	"/>
	<polygon class="st13" points="29.3,31.4 28.7,31 28.7,31.7 	"/>
	<polygon class="st13" points="33.1,34.4 32.5,34 32.5,34.7 	"/>
	<polygon class="st13" points="33.1,36.7 32.5,36.3 32.5,37.1 	"/>
	<polygon class="st13" points="33.1,39.3 32.5,38.9 32.5,39.6 	"/>
	<polygon class="st13" points="33.1,41.8 32.5,41.4 32.5,42.2 	"/>
	<polygon class="st13" points="33.1,44.4 32.5,44 32.5,44.7 	"/>
	<polygon class="st13" points="29.3,47.1 28.7,46.8 28.7,47.5 	"/>
	<polygon class="st13" points="29.3,52.6 28.7,52.2 28.7,52.9 	"/>
	<polygon class="st13" points="29.3,49.8 28.7,49.5 28.7,50.2 	"/>
	<polygon class="st13" points="50.8,31.4 50.2,31 50.2,31.7 	"/>
	<polygon class="st13" points="50.8,34.1 50.2,33.8 50.2,34.5 	"/>
	<polygon class="st13" points="50.8,39.7 50.2,39.4 50.2,40.1 	"/>
	<polygon class="st13" points="50.8,36.9 50.2,36.6 50.2,37.3 	"/>
	<polygon class="st13" points="7.5,67.7 6.8,67.3 6.8,68.1 	"/>
	<polygon class="st13" points="7.4,65.1 6.8,64.7 6.8,65.4 	"/>
	<polygon class="st13" points="10.5,70.8 9.9,70.4 9.9,71.2 	"/>
	<polygon class="st13" points="7.5,73.9 6.8,73.5 6.8,74.3 	"/>
	<polygon class="st13" points="28.7,64.8 28.1,64.5 28.1,65.2 	"/>
	<polygon class="st13" points="28.6,67.6 28,67.2 28,67.9 	"/>
	<polygon class="st13" points="28.6,70.3 28,70 28,70.7 	"/>
	<polygon class="st13" points="28.6,73.1 28,72.7 28,73.5 	"/>
	<polygon class="st13" points="28.7,75.9 28.1,75.5 28.1,76.2 	"/>
	<polygon class="st13" points="28.6,78.6 28,78.3 28,79 	"/>
	<polygon class="st13" points="50.3,65.8 49.7,65.4 49.7,66.2 	"/>
	<polygon class="st13" points="50.3,68.7 49.6,68.3 49.6,69 	"/>
	<polygon class="st13" points="50.3,71.4 49.6,71.1 49.6,71.8 	"/>
	<polygon class="st13" points="50.3,74.1 49.6,73.7 49.6,74.4 	"/>
	<polygon class="st13" points="50.3,76.9 49.6,76.5 49.6,77.2 	"/>
	<polygon class="st13" points="50.3,79.7 49.6,79.3 49.6,80 	"/>
	<polygon class="st13" points="54.4,82.7 53.8,82.4 53.8,83.1 	"/>
	<polygon class="st13" points="54.4,85.2 53.8,84.8 53.8,85.5 	"/>
	<polygon class="st13" points="50.3,88.4 49.6,88 49.6,88.7 	"/>
	<polygon class="st13" points="74.2,65.6 73.6,65.3 73.6,66 	"/>
	<polygon class="st13" points="74.2,68.4 73.6,68 73.6,68.8 	"/>
	<polygon class="st13" points="79.2,74.2 78.5,73.9 78.5,74.6 	"/>
	<polygon class="st13" points="79.2,71.5 78.6,71.1 78.6,71.8 	"/>
	<polygon class="st13" points="74.6,77.1 74,76.8 74,77.5 	"/>
	<polygon class="st13" points="74.6,82.7 74,82.4 74,83.1 	"/>
	<polygon class="st13" points="74.6,85.6 74,85.2 74,85.9 	"/>
	<polygon class="st13" points="74.6,88.4 74,88 74,88.7 	"/>
	<polyline class="st14" points="34.6,16.8 34.6,16 76.8,16 76.8,17 	"/>
	<line class="st14" x1="49.9" y1="13.2" x2="49.9" y2="16"/>
	<polyline class="st14" points="12.9,24.4 12.9,23 55.5,23 55.5,24.4 	"/>
	<path class="st14" d="M39.3,24.4c0-0.1,0-1.4,0-1.4"/>
	<line class="st14" x1="34.2" y1="21.5" x2="34.2" y2="23"/>
	<line class="st14" x1="24.4" y1="24.4" x2="24.4" y2="23"/>
	<polyline class="st14" points="7,43.8 5.5,43.8 5.5,28.5 	"/>
	<line class="st14" x1="7" y1="32.2" x2="5.5" y2="32.2"/>
	<line class="st14" x1="7" y1="34.9" x2="5.5" y2="34.9"/>
	<line class="st14" x1="7" y1="37.6" x2="5.5" y2="37.6"/>
	<polyline class="st14" points="11,40.8 8.5,40.8 8.5,38.8 	"/>
	<polyline class="st14" points="13.4,28.5 13.4,29.7 26.4,29.7 26.4,52.6 28.9,52.6 	"/>
	<line class="st14" x1="28.9" y1="49.8" x2="26.4" y2="49.8"/>
	<line class="st14" x1="28.8" y1="47.1" x2="26.4" y2="47.1"/>
	<line class="st14" x1="28.9" y1="31.4" x2="26.4" y2="31.4"/>
	<polyline class="st14" points="32.7,44.4 30.2,44.4 30.2,32.5 	"/>
	<line class="st14" x1="32.7" y1="34.4" x2="30.2" y2="34.4"/>
	<line class="st14" x1="32.6" y1="36.7" x2="30.2" y2="36.7"/>
	<line class="st14" x1="32.6" y1="39.3" x2="30.2" y2="39.3"/>
	<line class="st14" x1="32.7" y1="41.8" x2="30.2" y2="41.8"/>
	<polyline class="st14" points="47.9,28.5 47.9,39.7 50.4,39.7 	"/>
	<line class="st14" x1="50.4" y1="36.9" x2="47.9" y2="36.9"/>
	<line class="st14" x1="50.4" y1="34.1" x2="47.9" y2="34.1"/>
	<line class="st14" x1="50.4" y1="31.4" x2="47.9" y2="31.4"/>
	<line class="st14" x1="76.8" y1="21.5" x2="76.8" y2="55.5"/>
	<polyline class="st14" points="88.6,57.6 88.6,55.5 12.9,55.5 12.9,57.5 	"/>
	<line class="st14" x1="70.6" y1="57.5" x2="70.6" y2="55.5"/>
	<line class="st14" x1="51.2" y1="57.5" x2="51.2" y2="55.5"/>
	<line class="st14" x1="30.9" y1="57.5" x2="30.9" y2="55.5"/>
	<polyline class="st14" points="7,73.9 4.5,73.9 4.5,61.8 	"/>
	<line class="st14" x1="7" y1="65.1" x2="4.5" y2="65.1"/>
	<line class="st14" x1="7" y1="67.7" x2="4.5" y2="67.7"/>
	<polyline class="st14" points="10.1,70.8 8.5,70.8 8.5,68.8 	"/>
	<polyline class="st14" points="28.2,78.6 25.8,78.6 25.8,61.8 	"/>
	<line class="st14" x1="28.3" y1="64.8" x2="25.8" y2="64.8"/>
	<line class="st14" x1="28.2" y1="67.6" x2="25.8" y2="67.6"/>
	<line class="st14" x1="28.2" y1="70.3" x2="25.8" y2="70.3"/>
	<line class="st14" x1="28.1" y1="73.1" x2="25.8" y2="73.1"/>
	<line class="st14" x1="28.3" y1="75.9" x2="25.8" y2="75.9"/>
	<polyline class="st14" points="49.9,88.4 47.3,88.4 47.3,61.8 	"/>
	<line class="st14" x1="49.9" y1="65.8" x2="47.3" y2="65.8"/>
	<line class="st14" x1="49.9" y1="68.7" x2="47.3" y2="68.7"/>
	<line class="st14" x1="49.8" y1="71.4" x2="47.3" y2="71.4"/>
	<line class="st14" x1="49.8" y1="74.1" x2="47.3" y2="74.1"/>
	<line class="st14" x1="49.8" y1="76.9" x2="47.3" y2="76.9"/>
	<line class="st14" x1="49.9" y1="79.7" x2="47.3" y2="79.7"/>
	<polyline class="st14" points="54,85.2 51.5,85.2 51.5,80.8 	"/>
	<line class="st14" x1="54" y1="82.7" x2="51.5" y2="82.7"/>
	<polyline class="st14" points="50.3,61.8 50.3,63.1 71.4,63.1 71.4,88.4 74.2,88.4 	"/>
	<line class="st14" x1="74.2" y1="85.6" x2="71.4" y2="85.6"/>
	<line class="st14" x1="74.2" y1="82.7" x2="71.4" y2="82.7"/>
	<line class="st14" x1="74.2" y1="77.1" x2="71.4" y2="77.1"/>
	<polygon class="st13" points="74.6,79.9 74,79.6 74,80.3 	"/>
	<line class="st14" x1="74.2" y1="79.9" x2="71.4" y2="79.9"/>
	<line class="st14" x1="71.4" y1="65.6" x2="73.8" y2="65.6"/>
	<line class="st14" x1="73.8" y1="68.4" x2="71.4" y2="68.4"/>
	<polyline class="st14" points="76.4,69.6 76.4,74.2 78.7,74.2 	"/>
	<line class="st14" x1="78.8" y1="71.5" x2="76.4" y2="71.5"/>
</g>
<g id="Layer_3">
	<text transform="matrix(1 0 0 1 45.524 11.8405)" class="st15 st16">Throwable</text>
	<text transform="matrix(1 0 0 1 33.2625 20.0551)" class="st15 st17">Error</text>
	<text transform="matrix(1 0 0 1 6.559 27.2256)" class="st15 st18">LinkageError</text>
	<text transform="matrix(1 0 0 1 10.5456 32.5752)" class="st15 st19">BootstrapMethodError</text>
	<text transform="matrix(1 0 0 1 11.2404 35.3837)" class="st15 st19">ClassCircularityError</text>
	<text transform="matrix(1 0 0 1 12.0275 38.1922)" class="st15 st19">ClassFormatError</text>
	<text transform="matrix(1 0 0 1 9.2223 44.1549)" class="st15 st19">ExceptionInitializerError</text>
	<text transform="matrix(1 0 0 1 8.8335 60.4494)" class="st15 st18">IOException</text>
	<text transform="matrix(1 0 0 1 22.1422 60.4497)" class="st15 st18">RefectionOperationException</text>
	<text transform="matrix(1 0 0 1 45.6796 60.2895)" class="st15 st18">RuntimeException</text>
	<text transform="matrix(1 0 0 1 61.3368 60.4493)" class="st15 st18">CloneNotSupportedException</text>
	<text transform="matrix(1 0 0 1 82.6885 60.2896)" class="st15 st18">InterruptException</text>
	<text transform="matrix(1 0 0 1 20.4483 27.2256)" class="st15 st18">AssertionError</text>
	<text transform="matrix(1 0 0 1 35.1569 27.2256)" class="st15 st18">ThreadDeath</text>
	<text transform="matrix(1 0 0 1 47.3743 27.2257)" class="st15 st18">VirtualMachineError</text>
	<text transform="matrix(1 0 0 1 72.1261 20.1988)" class="st15 st17">Exception</text>
	<text transform="matrix(1 0 0 1 12.0165 41.187)" class="st15 st20">UnsupportedClassVersionError</text>
	<text transform="matrix(1 0 0 1 35.863 34.5059)" class="st15 st20">AbstractMethodError</text>
	<text transform="matrix(1 0 0 1 37.2141 37.0592)" class="st15 st20">IllegalAccessError</text>
	<text transform="matrix(1 0 0 1 36.9025 39.6122)" class="st15 st20">InstantiationError</text>
	<text transform="matrix(1 0 0 1 36.864 42.1656)" class="st15 st20">NoSuchFileError</text>
	<text transform="matrix(1 0 0 1 36.3454 44.5266)" class="st15 st20">NoSuchMethodError</text>
	<text transform="matrix(1 0 0 1 13.2414 71.1652)" class="st15 st20">ConnectException</text>
	<text transform="matrix(1 0 0 1 56.1923 82.8669)" class="st15 st20">IllegalThreadStateException</text>
	<text transform="matrix(1 0 0 1 56.744 85.5273)" class="st15 st20">NumberFormatException</text>
	<text transform="matrix(1 0 0 1 80.4686 71.8411)" class="st15 st20">ArrayIndexOutOfBoundsException</text>
	<text transform="matrix(1 0 0 1 80.3288 74.5833)" class="st15 st20">StringIndexOutOfBoundsException</text>
	<text transform="matrix(1 0 0 1 29.7407 31.8998)" class="st15 st19">IncompableClassChangeError</text>
	<text transform="matrix(1 0 0 1 32.0668 47.485)" class="st15 st19">NoClassDefFoundError</text>
	<text transform="matrix(1 0 0 1 32.3322 50.2081)" class="st15 st19">UnsatisfeldLinkError</text>
	<text transform="matrix(1 0 0 1 34.8576 52.9315)" class="st15 st19">VerifyError</text>
	<text transform="matrix(1 0 0 1 56.8415 31.8999)" class="st15 st19">InternalError</text>
	<text transform="matrix(1 0 0 1 55.6521 34.506)" class="st15 st19">OutOfMemoryError</text>
	<text transform="matrix(1 0 0 1 54.6999 37.4205)" class="st15 st19">StackOverfowError</text>
	<text transform="matrix(1 0 0 1 55.9763 40.0805)" class="st15 st19">UnknownError</text>
	<text transform="matrix(1 0 0 1 10.0033 65.3562)" class="st15 st19">FileNotFoundException</text>
	<text transform="matrix(1 0 0 1 11.6611 68.2398)" class="st15 st19">SocketException</text>
	<text transform="matrix(1 0 0 1 9.5792 74.426)" class="st15 st19">UnknownHostException</text>
	<text transform="matrix(1 0 0 1 30.5712 65.3562)" class="st15 st19">ClassNotFoundException</text>
	<text transform="matrix(1 0 0 1 31.2494 68.0801)" class="st15 st19">IllegalAccessException</text>
	<text transform="matrix(1 0 0 1 31.2601 70.6975)" class="st15 st19">InstantiationException</text>
	<text transform="matrix(1 0 0 1 30.0599 73.4581)" class="st15 st19">InvocationTargetException</text>
	<text transform="matrix(1 0 0 1 31.2588 76.314)" class="st15 st19">NoSuchFieldException</text>
	<text transform="matrix(1 0 0 1 30.4252 78.9794)" class="st15 st19">NoSuchMethodException</text>
	<text transform="matrix(1 0 0 1 54.1697 65.9465)" class="st15 st19">ArithmeticException</text>
	<text transform="matrix(1 0 0 1 54.0012 68.7701)" class="st15 st19">ArrayStoreException</text>
	<text transform="matrix(1 0 0 1 54.5125 71.7551)" class="st15 st19">ClassCastException</text>
	<text transform="matrix(1 0 0 1 50.7561 74.4262)" class="st15 st19">ConcurrentModifcatorException</text>
	<text transform="matrix(1 0 0 1 51.3777 77.2347)" class="st15 st21">EnumConstantNotPresentException</text>
	<text transform="matrix(1 0 0 1 52.4807 80.2444)" class="st15 st19">IllegalArgumentException</text>
	<text transform="matrix(1 0 0 1 52.8083 88.7607)" class="st15 st19">IllegalMonitorException</text>
	<text transform="matrix(1 0 0 1 78.2439 66.0007)" class="st15 st19">IllegalStateException</text>
	<text transform="matrix(1 0 0 1 75.7341 68.8242)" class="st15 st19">IndexOutOfBoundsException</text>
	<text transform="matrix(1 0 0 1 77.0847 77.633)" class="st15 st19">NegativeArraySizeException</text>
	<text transform="matrix(1 0 0 1 78.3708 80.2986)" class="st15 st19">NullPointerException</text>
	<text transform="matrix(1 0 0 1 79.6022 83.1543)" class="st15 st19">SecurityException</text>
	<text transform="matrix(1 0 0 1 77.4167 85.9156)" class="st15 st19">TypeNotPresentException</text>
	<text transform="matrix(1 0 0 1 74.8847 88.7244)" class="st15 st19">UnsupportedOperationException</text>
</g>
<g id="Layer_2" class="st22">
	
		<image style="display:inline;overflow:visible;opacity:0.23;" width="977" height="854" xlink:href="D93E2F1C.jpg"  transform="matrix(0.1024 0 0 0.1024 0 0)">
	</image>
</g>
</svg>
